<svg xmlns="http://www.w3.org/2000/svg" xmlns:xlink="http://www.w3.org/1999/xlink" width="800" zoomAndPan="magnify" viewBox="0 0 600 405.74999" height="541" preserveAspectRatio="xMidYMid meet" version="1.2"><defs><clipPath id="1d943c1ceb"><path d="M 332.242188 134.671875 L 358.871094 134.671875 L 358.871094 161.304688 L 332.242188 161.304688 Z M 332.242188 134.671875 "/></clipPath><clipPath id="e1e5d16a92"><path d="M 345.554688 134.671875 C 338.203125 134.671875 332.242188 140.636719 332.242188 147.988281 C 332.242188 155.34375 338.203125 161.304688 345.554688 161.304688 C 352.910156 161.304688 358.871094 155.34375 358.871094 147.988281 C 358.871094 140.636719 352.910156 134.671875 345.554688 134.671875 Z M 345.554688 134.671875 "/></clipPath><clipPath id="876b183902"><path d="M 334.34375 136.773438 L 357 136.773438 L 357 159.589844 L 334.34375 159.589844 Z M 334.34375 136.773438 "/></clipPath></defs><g id="3d449d51a7"><g style="fill:#0086c4;fill-opacity:1;"><g transform="translate(55.421955, 235.583187)"><path style="stroke:none" d="M 87.859375 0 L 83.234375 -57.90625 L 82.640625 -57.90625 L 62.640625 -0.59375 L 49.375 -0.59375 L 29.359375 -57.90625 L 28.765625 -57.90625 L 24.15625 0 L 1.890625 0 L 10.65625 -97.6875 L 34.34375 -97.6875 L 56 -41.328125 L 77.671875 -97.6875 L 101.359375 -97.6875 L 110.125 0 Z M 87.859375 0 "/></g></g><g style="fill:#0086c4;fill-opacity:1;"><g transform="translate(163.401031, 235.583187)"><path style="stroke:none" d="M 68.5625 -27.46875 L 24.515625 -27.46875 C 24.515625 -23.207031 25.894531 -20.050781 28.65625 -18 C 31.414062 -15.945312 34.414062 -14.921875 37.65625 -14.921875 C 41.050781 -14.921875 43.734375 -15.375 45.703125 -16.28125 C 47.679688 -17.1875 49.929688 -18.984375 52.453125 -21.671875 L 67.609375 -14.09375 C 61.296875 -3.507812 50.796875 1.78125 36.109375 1.78125 C 26.953125 1.78125 19.097656 -1.351562 12.546875 -7.625 C 5.992188 -13.90625 2.71875 -21.46875 2.71875 -30.3125 C 2.71875 -39.15625 5.992188 -46.734375 12.546875 -53.046875 C 19.097656 -59.359375 26.953125 -62.515625 36.109375 -62.515625 C 45.742188 -62.515625 53.578125 -59.734375 59.609375 -54.171875 C 65.648438 -48.609375 68.671875 -40.65625 68.671875 -30.3125 C 68.671875 -28.894531 68.632812 -27.945312 68.5625 -27.46875 Z M 25.109375 -39.078125 L 48.1875 -39.078125 C 47.71875 -42.234375 46.472656 -44.660156 44.453125 -46.359375 C 42.441406 -48.054688 39.859375 -48.90625 36.703125 -48.90625 C 33.234375 -48.90625 30.472656 -47.992188 28.421875 -46.171875 C 26.367188 -44.359375 25.265625 -41.992188 25.109375 -39.078125 Z M 25.109375 -39.078125 "/></g></g><g style="fill:#0086c4;fill-opacity:1;"><g transform="translate(230.769264, 235.583187)"><path style="stroke:none" d="M 11.25 -7.515625 C 5.5625 -13.710938 2.71875 -21.3125 2.71875 -30.3125 C 2.71875 -39.3125 5.5625 -46.925781 11.25 -53.15625 C 16.9375 -59.394531 24.160156 -62.515625 32.921875 -62.515625 C 40.972656 -62.515625 47.601562 -59.988281 52.8125 -54.9375 L 52.8125 -101.828125 L 73.765625 -101.828125 L 73.765625 0 L 53.046875 0 L 53.046875 -6.875 L 52.8125 -6.875 C 47.601562 -1.101562 40.972656 1.78125 32.921875 1.78125 C 24.160156 1.78125 16.9375 -1.316406 11.25 -7.515625 Z M 29.0625 -40.609375 C 26.34375 -37.929688 24.984375 -34.5 24.984375 -30.3125 C 24.984375 -26.125 26.285156 -22.707031 28.890625 -20.0625 C 31.492188 -17.425781 34.925781 -16.109375 39.1875 -16.109375 C 43.289062 -16.109375 46.664062 -17.445312 49.3125 -20.125 C 51.957031 -22.8125 53.28125 -26.207031 53.28125 -30.3125 C 53.28125 -34.5 51.914062 -37.929688 49.1875 -40.609375 C 46.46875 -43.296875 43.132812 -44.640625 39.1875 -44.640625 C 35.164062 -44.640625 31.789062 -43.296875 29.0625 -40.609375 Z M 29.0625 -40.609375 "/></g></g><g style="fill:#0086c4;fill-opacity:1;"><g transform="translate(307.609417, 235.583187)"><path style="stroke:none" d="M 43.09375 -99.46875 C 48.382812 -99.46875 53.554688 -98.695312 58.609375 -97.15625 C 63.660156 -95.613281 67.410156 -94.09375 69.859375 -92.59375 L 73.40625 -90.21875 L 64.40625 -72.46875 C 63.695312 -72.9375 62.710938 -73.546875 61.453125 -74.296875 C 60.191406 -75.046875 57.820312 -76.050781 54.34375 -77.3125 C 50.875 -78.582031 47.640625 -79.21875 44.640625 -79.21875 C 40.929688 -79.21875 38.066406 -78.425781 36.046875 -76.84375 C 34.035156 -75.269531 33.03125 -73.140625 33.03125 -70.453125 C 33.03125 -69.109375 33.503906 -67.863281 34.453125 -66.71875 C 35.398438 -65.570312 37.019531 -64.347656 39.3125 -63.046875 C 41.601562 -61.742188 43.613281 -60.695312 45.34375 -59.90625 C 47.082031 -59.125 49.769531 -57.941406 53.40625 -56.359375 C 59.71875 -53.671875 65.101562 -50.019531 69.5625 -45.40625 C 74.019531 -40.789062 76.25 -35.5625 76.25 -29.71875 C 76.25 -24.113281 75.242188 -19.21875 73.234375 -15.03125 C 71.222656 -10.851562 68.457031 -7.578125 64.9375 -5.203125 C 61.425781 -2.835938 57.539062 -1.082031 53.28125 0.0625 C 49.019531 1.207031 44.398438 1.78125 39.421875 1.78125 C 35.160156 1.78125 30.976562 1.34375 26.875 0.46875 C 22.769531 -0.394531 19.335938 -1.476562 16.578125 -2.78125 C 13.816406 -4.082031 11.328125 -5.363281 9.109375 -6.625 C 6.898438 -7.894531 5.285156 -8.960938 4.265625 -9.828125 L 2.71875 -11.125 L 13.859375 -29.84375 C 14.804688 -29.050781 16.109375 -28.039062 17.765625 -26.8125 C 19.421875 -25.59375 22.359375 -23.957031 26.578125 -21.90625 C 30.804688 -19.851562 34.535156 -18.828125 37.765625 -18.828125 C 47.160156 -18.828125 51.859375 -22.023438 51.859375 -28.421875 C 51.859375 -29.765625 51.519531 -31.003906 50.84375 -32.140625 C 50.175781 -33.285156 48.992188 -34.429688 47.296875 -35.578125 C 45.597656 -36.722656 44.097656 -37.628906 42.796875 -38.296875 C 41.492188 -38.972656 39.363281 -40 36.40625 -41.375 C 33.445312 -42.757812 31.257812 -43.804688 29.84375 -44.515625 C 23.914062 -47.441406 19.332031 -51.09375 16.09375 -55.46875 C 12.863281 -59.851562 11.25 -64.570312 11.25 -69.625 C 11.25 -78.382812 14.484375 -85.546875 20.953125 -91.109375 C 27.429688 -96.679688 34.8125 -99.46875 43.09375 -99.46875 Z M 43.09375 -99.46875 "/></g></g><g style="fill:#0086c4;fill-opacity:1;"><g transform="translate(383.147197, 235.583187)"><path style="stroke:none" d="M 12.84375 -7.21875 C 6.09375 -13.21875 2.71875 -20.914062 2.71875 -30.3125 C 2.71875 -39.707031 6.226562 -47.421875 13.25 -53.453125 C 20.28125 -59.492188 28.96875 -62.515625 39.3125 -62.515625 C 49.488281 -62.515625 58.070312 -59.472656 65.0625 -53.390625 C 72.050781 -47.316406 75.546875 -39.625 75.546875 -30.3125 C 75.546875 -21 72.128906 -13.320312 65.296875 -7.28125 C 58.472656 -1.238281 49.8125 1.78125 39.3125 1.78125 C 28.414062 1.78125 19.59375 -1.21875 12.84375 -7.21875 Z M 29.0625 -40.609375 C 26.34375 -37.929688 24.984375 -34.5 24.984375 -30.3125 C 24.984375 -26.125 26.285156 -22.707031 28.890625 -20.0625 C 31.492188 -17.425781 34.925781 -16.109375 39.1875 -16.109375 C 43.289062 -16.109375 46.664062 -17.445312 49.3125 -20.125 C 51.957031 -22.8125 53.28125 -26.207031 53.28125 -30.3125 C 53.28125 -34.5 51.914062 -37.929688 49.1875 -40.609375 C 46.46875 -43.296875 43.132812 -44.640625 39.1875 -44.640625 C 35.164062 -44.640625 31.789062 -43.296875 29.0625 -40.609375 Z M 29.0625 -40.609375 "/></g></g><g style="fill:#0086c4;fill-opacity:1;"><g transform="translate(457.382579, 235.583187)"><path style="stroke:none" d="M 10.65625 -60.75 L 10.65625 -73.65625 C 10.738281 -82.726562 12.867188 -89.988281 17.046875 -95.4375 C 21.234375 -100.882812 27.035156 -103.609375 34.453125 -103.609375 C 37.609375 -103.609375 40.628906 -103.148438 43.515625 -102.234375 C 46.398438 -101.328125 48.472656 -100.40625 49.734375 -99.46875 L 51.75 -98.15625 L 44.40625 -83.359375 C 42.507812 -84.460938 40.414062 -85.015625 38.125 -85.015625 C 35.519531 -85.015625 33.78125 -84.125 32.90625 -82.34375 C 32.039062 -80.570312 31.609375 -77.476562 31.609375 -73.0625 L 31.609375 -60.75 L 45.59375 -60.75 L 45.59375 -44.75 L 31.609375 -44.75 L 31.609375 0 L 10.65625 0 L 10.65625 -44.75 L 1.890625 -44.75 L 1.890625 -60.75 Z M 10.65625 -60.75 "/></g></g><g style="fill:#0086c4;fill-opacity:1;"><g transform="translate(497.755872, 235.583187)"><path style="stroke:none" d="M 10.65625 -60.75 L 10.65625 -83.359375 L 31.609375 -83.359375 L 31.609375 -60.75 L 44.40625 -60.75 L 44.40625 -44.75 L 31.609375 -44.75 L 31.609375 -25.453125 C 31.609375 -19.847656 33.1875 -17.046875 36.34375 -17.046875 C 37.132812 -17.046875 37.960938 -17.203125 38.828125 -17.515625 C 39.703125 -17.835938 40.375 -18.15625 40.84375 -18.46875 L 41.5625 -18.9375 L 46.765625 -2.015625 C 42.265625 0.515625 37.132812 1.78125 31.375 1.78125 C 27.425781 1.78125 24.03125 1.085938 21.1875 -0.296875 C 18.351562 -1.679688 16.203125 -3.535156 14.734375 -5.859375 C 13.273438 -8.191406 12.226562 -10.640625 11.59375 -13.203125 C 10.96875 -15.765625 10.65625 -18.507812 10.65625 -21.4375 L 10.65625 -44.75 L 1.890625 -44.75 L 1.890625 -60.75 Z M 10.65625 -60.75 "/></g></g><g clip-rule="nonzero" clip-path="url(#1d943c1ceb)"><g clip-rule="nonzero" clip-path="url(#e1e5d16a92)"><path style=" stroke:none;fill-rule:nonzero;fill:#ffffff;fill-opacity:1;" d="M 332.242188 134.671875 L 358.871094 134.671875 L 358.871094 161.304688 L 332.242188 161.304688 Z M 332.242188 134.671875 "/></g></g><g clip-rule="nonzero" clip-path="url(#876b183902)"><path style=" stroke:none;fill-rule:nonzero;fill:#0086c4;fill-opacity:1;" d="M 356.742188 147.972656 C 356.742188 154.183594 351.75 159.171875 345.542969 159.171875 C 339.332031 159.171875 334.34375 154.183594 334.34375 147.972656 C 334.34375 141.761719 339.332031 136.773438 345.542969 136.773438 C 351.75 136.773438 356.742188 141.761719 356.742188 147.972656 Z M 352.667969 145.378906 L 348.136719 145.378906 L 348.136719 140.847656 L 342.894531 140.847656 L 342.894531 145.378906 L 338.363281 145.378906 L 338.363281 150.621094 L 342.894531 150.621094 L 342.894531 155.101562 L 348.136719 155.101562 L 348.136719 150.570312 L 352.667969 150.570312 Z M 352.667969 145.378906 "/></g><g style="fill:#0086c4;fill-opacity:1;"><g transform="translate(74.964443, 259.043464)"><path style="stroke:none" d="M 17.453125 -17.484375 L 17.453125 0 L 15.625 0 L 15.625 -8.0625 L 4.6875 -8.0625 L 4.6875 0 L 2.84375 0 L 2.84375 -17.484375 L 4.6875 -17.484375 L 4.6875 -9.6875 L 15.625 -9.6875 L 15.625 -17.484375 Z M 17.453125 -17.484375 "/></g></g><g style="fill:#0086c4;fill-opacity:1;"><g transform="translate(100.28111, 259.043464)"><path style="stroke:none" d="M 13.90625 -6.015625 L 2.921875 -6.015625 C 3.023438 -4.648438 3.550781 -3.546875 4.5 -2.703125 C 5.445312 -1.867188 6.644531 -1.453125 8.09375 -1.453125 C 8.90625 -1.453125 9.648438 -1.597656 10.328125 -1.890625 C 11.015625 -2.179688 11.609375 -2.609375 12.109375 -3.171875 L 13.109375 -2.015625 C 12.523438 -1.316406 11.796875 -0.785156 10.921875 -0.421875 C 10.046875 -0.0546875 9.085938 0.125 8.046875 0.125 C 6.691406 0.125 5.492188 -0.160156 4.453125 -0.734375 C 3.410156 -1.304688 2.597656 -2.097656 2.015625 -3.109375 C 1.441406 -4.128906 1.15625 -5.28125 1.15625 -6.5625 C 1.15625 -7.84375 1.429688 -8.988281 1.984375 -10 C 2.546875 -11.019531 3.3125 -11.8125 4.28125 -12.375 C 5.257812 -12.945312 6.351562 -13.234375 7.5625 -13.234375 C 8.78125 -13.234375 9.867188 -12.945312 10.828125 -12.375 C 11.796875 -11.8125 12.554688 -11.023438 13.109375 -10.015625 C 13.660156 -9.015625 13.9375 -7.863281 13.9375 -6.5625 Z M 7.5625 -11.703125 C 6.300781 -11.703125 5.238281 -11.296875 4.375 -10.484375 C 3.519531 -9.679688 3.035156 -8.632812 2.921875 -7.34375 L 12.234375 -7.34375 C 12.117188 -8.632812 11.628906 -9.679688 10.765625 -10.484375 C 9.910156 -11.296875 8.84375 -11.703125 7.5625 -11.703125 Z M 7.5625 -11.703125 "/></g></g><g style="fill:#0086c4;fill-opacity:1;"><g transform="translate(120.38023, 259.043464)"><path style="stroke:none" d="M 7.0625 -13.234375 C 8.78125 -13.234375 10.097656 -12.800781 11.015625 -11.9375 C 11.929688 -11.082031 12.390625 -9.816406 12.390625 -8.140625 L 12.390625 0 L 10.6875 0 L 10.6875 -2.046875 C 10.289062 -1.367188 9.703125 -0.835938 8.921875 -0.453125 C 8.148438 -0.0664062 7.234375 0.125 6.171875 0.125 C 4.703125 0.125 3.535156 -0.222656 2.671875 -0.921875 C 1.804688 -1.617188 1.375 -2.546875 1.375 -3.703125 C 1.375 -4.816406 1.773438 -5.710938 2.578125 -6.390625 C 3.390625 -7.078125 4.675781 -7.421875 6.4375 -7.421875 L 10.609375 -7.421875 L 10.609375 -8.21875 C 10.609375 -9.34375 10.289062 -10.203125 9.65625 -10.796875 C 9.03125 -11.390625 8.109375 -11.6875 6.890625 -11.6875 C 6.054688 -11.6875 5.253906 -11.546875 4.484375 -11.265625 C 3.722656 -10.992188 3.066406 -10.617188 2.515625 -10.140625 L 1.71875 -11.453125 C 2.382812 -12.023438 3.179688 -12.460938 4.109375 -12.765625 C 5.046875 -13.078125 6.03125 -13.234375 7.0625 -13.234375 Z M 6.4375 -1.265625 C 7.4375 -1.265625 8.296875 -1.492188 9.015625 -1.953125 C 9.734375 -2.410156 10.265625 -3.070312 10.609375 -3.9375 L 10.609375 -6.09375 L 6.484375 -6.09375 C 4.242188 -6.09375 3.125 -5.3125 3.125 -3.75 C 3.125 -2.976562 3.414062 -2.367188 4 -1.921875 C 4.582031 -1.484375 5.394531 -1.265625 6.4375 -1.265625 Z M 6.4375 -1.265625 "/></g></g><g style="fill:#0086c4;fill-opacity:1;"><g transform="translate(140.12985, 259.043464)"><path style="stroke:none" d="M 2.46875 -18.53125 L 4.25 -18.53125 L 4.25 0 L 2.46875 0 Z M 2.46875 -18.53125 "/></g></g><g style="fill:#0086c4;fill-opacity:1;"><g transform="translate(151.865927, 259.043464)"><path style="stroke:none" d="M 9.390625 -0.796875 C 9.054688 -0.492188 8.644531 -0.265625 8.15625 -0.109375 C 7.664062 0.046875 7.148438 0.125 6.609375 0.125 C 5.378906 0.125 4.429688 -0.207031 3.765625 -0.875 C 3.097656 -1.539062 2.765625 -2.484375 2.765625 -3.703125 L 2.765625 -11.640625 L 0.421875 -11.640625 L 0.421875 -13.140625 L 2.765625 -13.140625 L 2.765625 -16 L 4.546875 -16 L 4.546875 -13.140625 L 8.546875 -13.140625 L 8.546875 -11.640625 L 4.546875 -11.640625 L 4.546875 -3.796875 C 4.546875 -3.015625 4.738281 -2.414062 5.125 -2 C 5.519531 -1.59375 6.082031 -1.390625 6.8125 -1.390625 C 7.175781 -1.390625 7.53125 -1.445312 7.875 -1.5625 C 8.21875 -1.6875 8.515625 -1.859375 8.765625 -2.078125 Z M 9.390625 -0.796875 "/></g></g><g style="fill:#0086c4;fill-opacity:1;"><g transform="translate(167.022109, 259.043464)"><path style="stroke:none" d="M 9.15625 -13.234375 C 10.8125 -13.234375 12.125 -12.753906 13.09375 -11.796875 C 14.070312 -10.835938 14.5625 -9.441406 14.5625 -7.609375 L 14.5625 0 L 12.78125 0 L 12.78125 -7.4375 C 12.78125 -8.800781 12.4375 -9.84375 11.75 -10.5625 C 11.070312 -11.28125 10.101562 -11.640625 8.84375 -11.640625 C 7.425781 -11.640625 6.304688 -11.21875 5.484375 -10.375 C 4.660156 -9.53125 4.25 -8.367188 4.25 -6.890625 L 4.25 0 L 2.46875 0 L 2.46875 -18.53125 L 4.25 -18.53125 L 4.25 -10.84375 C 4.726562 -11.601562 5.390625 -12.191406 6.234375 -12.609375 C 7.085938 -13.023438 8.0625 -13.234375 9.15625 -13.234375 Z M 9.15625 -13.234375 "/></g></g><g style="fill:#0086c4;fill-opacity:1;"><g transform="translate(188.943617, 259.043464)"><path style="stroke:none" d=""/></g></g><g style="fill:#0086c4;fill-opacity:1;"><g transform="translate(200.504944, 259.043464)"><path style="stroke:none" d="M 10.4375 0.15625 C 8.707031 0.15625 7.144531 -0.222656 5.75 -0.984375 C 4.363281 -1.753906 3.273438 -2.816406 2.484375 -4.171875 C 1.691406 -5.535156 1.296875 -7.054688 1.296875 -8.734375 C 1.296875 -10.421875 1.691406 -11.941406 2.484375 -13.296875 C 3.273438 -14.648438 4.367188 -15.707031 5.765625 -16.46875 C 7.160156 -17.238281 8.726562 -17.625 10.46875 -17.625 C 11.757812 -17.625 12.953125 -17.40625 14.046875 -16.96875 C 15.148438 -16.539062 16.085938 -15.910156 16.859375 -15.078125 L 15.6875 -13.90625 C 14.320312 -15.289062 12.597656 -15.984375 10.515625 -15.984375 C 9.128906 -15.984375 7.867188 -15.664062 6.734375 -15.03125 C 5.609375 -14.394531 4.722656 -13.523438 4.078125 -12.421875 C 3.441406 -11.328125 3.125 -10.097656 3.125 -8.734375 C 3.125 -7.367188 3.441406 -6.132812 4.078125 -5.03125 C 4.722656 -3.9375 5.609375 -3.070312 6.734375 -2.4375 C 7.867188 -1.8125 9.128906 -1.5 10.515625 -1.5 C 12.609375 -1.5 14.332031 -2.195312 15.6875 -3.59375 L 16.859375 -2.421875 C 16.085938 -1.585938 15.148438 -0.945312 14.046875 -0.5 C 12.941406 -0.0625 11.738281 0.15625 10.4375 0.15625 Z M 10.4375 0.15625 "/></g></g><g style="fill:#0086c4;fill-opacity:1;"><g transform="translate(223.474957, 259.043464)"><path style="stroke:none" d="M 13.90625 -6.015625 L 2.921875 -6.015625 C 3.023438 -4.648438 3.550781 -3.546875 4.5 -2.703125 C 5.445312 -1.867188 6.644531 -1.453125 8.09375 -1.453125 C 8.90625 -1.453125 9.648438 -1.597656 10.328125 -1.890625 C 11.015625 -2.179688 11.609375 -2.609375 12.109375 -3.171875 L 13.109375 -2.015625 C 12.523438 -1.316406 11.796875 -0.785156 10.921875 -0.421875 C 10.046875 -0.0546875 9.085938 0.125 8.046875 0.125 C 6.691406 0.125 5.492188 -0.160156 4.453125 -0.734375 C 3.410156 -1.304688 2.597656 -2.097656 2.015625 -3.109375 C 1.441406 -4.128906 1.15625 -5.28125 1.15625 -6.5625 C 1.15625 -7.84375 1.429688 -8.988281 1.984375 -10 C 2.546875 -11.019531 3.3125 -11.8125 4.28125 -12.375 C 5.257812 -12.945312 6.351562 -13.234375 7.5625 -13.234375 C 8.78125 -13.234375 9.867188 -12.945312 10.828125 -12.375 C 11.796875 -11.8125 12.554688 -11.023438 13.109375 -10.015625 C 13.660156 -9.015625 13.9375 -7.863281 13.9375 -6.5625 Z M 7.5625 -11.703125 C 6.300781 -11.703125 5.238281 -11.296875 4.375 -10.484375 C 3.519531 -9.679688 3.035156 -8.632812 2.921875 -7.34375 L 12.234375 -7.34375 C 12.117188 -8.632812 11.628906 -9.679688 10.765625 -10.484375 C 9.910156 -11.296875 8.84375 -11.703125 7.5625 -11.703125 Z M 7.5625 -11.703125 "/></g></g><g style="fill:#0086c4;fill-opacity:1;"><g transform="translate(243.574077, 259.043464)"><path style="stroke:none" d="M 9.15625 -13.234375 C 10.8125 -13.234375 12.125 -12.753906 13.09375 -11.796875 C 14.070312 -10.835938 14.5625 -9.441406 14.5625 -7.609375 L 14.5625 0 L 12.78125 0 L 12.78125 -7.4375 C 12.78125 -8.800781 12.4375 -9.84375 11.75 -10.5625 C 11.070312 -11.28125 10.101562 -11.640625 8.84375 -11.640625 C 7.425781 -11.640625 6.304688 -11.21875 5.484375 -10.375 C 4.660156 -9.53125 4.25 -8.367188 4.25 -6.890625 L 4.25 0 L 2.46875 0 L 2.46875 -13.140625 L 4.171875 -13.140625 L 4.171875 -10.71875 C 4.648438 -11.507812 5.316406 -12.125 6.171875 -12.5625 C 7.035156 -13.007812 8.03125 -13.234375 9.15625 -13.234375 Z M 9.15625 -13.234375 "/></g></g><g style="fill:#0086c4;fill-opacity:1;"><g transform="translate(265.495586, 259.043464)"><path style="stroke:none" d="M 9.390625 -0.796875 C 9.054688 -0.492188 8.644531 -0.265625 8.15625 -0.109375 C 7.664062 0.046875 7.148438 0.125 6.609375 0.125 C 5.378906 0.125 4.429688 -0.207031 3.765625 -0.875 C 3.097656 -1.539062 2.765625 -2.484375 2.765625 -3.703125 L 2.765625 -11.640625 L 0.421875 -11.640625 L 0.421875 -13.140625 L 2.765625 -13.140625 L 2.765625 -16 L 4.546875 -16 L 4.546875 -13.140625 L 8.546875 -13.140625 L 8.546875 -11.640625 L 4.546875 -11.640625 L 4.546875 -3.796875 C 4.546875 -3.015625 4.738281 -2.414062 5.125 -2 C 5.519531 -1.59375 6.082031 -1.390625 6.8125 -1.390625 C 7.175781 -1.390625 7.53125 -1.445312 7.875 -1.5625 C 8.21875 -1.6875 8.515625 -1.859375 8.765625 -2.078125 Z M 9.390625 -0.796875 "/></g></g><g style="fill:#0086c4;fill-opacity:1;"><g transform="translate(280.651768, 259.043464)"><path style="stroke:none" d="M 13.90625 -6.015625 L 2.921875 -6.015625 C 3.023438 -4.648438 3.550781 -3.546875 4.5 -2.703125 C 5.445312 -1.867188 6.644531 -1.453125 8.09375 -1.453125 C 8.90625 -1.453125 9.648438 -1.597656 10.328125 -1.890625 C 11.015625 -2.179688 11.609375 -2.609375 12.109375 -3.171875 L 13.109375 -2.015625 C 12.523438 -1.316406 11.796875 -0.785156 10.921875 -0.421875 C 10.046875 -0.0546875 9.085938 0.125 8.046875 0.125 C 6.691406 0.125 5.492188 -0.160156 4.453125 -0.734375 C 3.410156 -1.304688 2.597656 -2.097656 2.015625 -3.109375 C 1.441406 -4.128906 1.15625 -5.28125 1.15625 -6.5625 C 1.15625 -7.84375 1.429688 -8.988281 1.984375 -10 C 2.546875 -11.019531 3.3125 -11.8125 4.28125 -12.375 C 5.257812 -12.945312 6.351562 -13.234375 7.5625 -13.234375 C 8.78125 -13.234375 9.867188 -12.945312 10.828125 -12.375 C 11.796875 -11.8125 12.554688 -11.023438 13.109375 -10.015625 C 13.660156 -9.015625 13.9375 -7.863281 13.9375 -6.5625 Z M 7.5625 -11.703125 C 6.300781 -11.703125 5.238281 -11.296875 4.375 -10.484375 C 3.519531 -9.679688 3.035156 -8.632812 2.921875 -7.34375 L 12.234375 -7.34375 C 12.117188 -8.632812 11.628906 -9.679688 10.765625 -10.484375 C 9.910156 -11.296875 8.84375 -11.703125 7.5625 -11.703125 Z M 7.5625 -11.703125 "/></g></g><g style="fill:#0086c4;fill-opacity:1;"><g transform="translate(300.750888, 259.043464)"><path style="stroke:none" d="M 4.171875 -10.5625 C 4.585938 -11.445312 5.207031 -12.113281 6.03125 -12.5625 C 6.851562 -13.007812 7.875 -13.234375 9.09375 -13.234375 L 9.09375 -11.515625 L 8.671875 -11.53125 C 7.285156 -11.53125 6.203125 -11.101562 5.421875 -10.25 C 4.640625 -9.40625 4.25 -8.21875 4.25 -6.6875 L 4.25 0 L 2.46875 0 L 2.46875 -13.140625 L 4.171875 -13.140625 Z M 4.171875 -10.5625 "/></g></g><path style="fill:none;stroke-width:1;stroke-linecap:butt;stroke-linejoin:miter;stroke:#0086c4;stroke-opacity:1;stroke-miterlimit:4;" d="M -0.00065574 0.500877 L 102.248653 0.499265 " transform="matrix(1.896789,-0.0146401,0.0146401,1.896789,324.53688,257.241339)"/></g></svg>