<svg xmlns="http://www.w3.org/2000/svg" xmlns:xlink="http://www.w3.org/1999/xlink" width="500" zoomAndPan="magnify" viewBox="0 0 375 374.999991" height="500" preserveAspectRatio="xMidYMid meet" version="1.0"><defs><g/><clipPath id="62deaae237"><path d="M 0.15625 4.761719 L 254 4.761719 L 254 251 L 0.15625 251 Z M 0.15625 4.761719 " clip-rule="nonzero"/></clipPath><clipPath id="05d96eb2d6"><path d="M 185.183594 122.210938 L 234 122.210938 L 234 170 L 185.183594 170 Z M 185.183594 122.210938 " clip-rule="nonzero"/></clipPath><clipPath id="6b281d083f"><path d="M 68 178 L 219 178 L 219 281.199219 L 68 281.199219 Z M 68 178 " clip-rule="nonzero"/></clipPath><clipPath id="2999b20e8e"><rect x="0" width="151" y="0" height="104"/></clipPath><clipPath id="4e4f91dfe8"><rect x="0" width="255" y="0" height="282"/></clipPath></defs><g transform="matrix(1, 0, 0, 1, 45, 44)"><g clip-path="url(#4e4f91dfe8)"><g clip-path="url(#62deaae237)"><path fill="#145da0" d="M 217.308594 184.125 C 216.519531 221.089844 186.0625 250.898438 148.746094 250.898438 C 110.910156 250.898438 80.144531 220.261719 80.144531 182.640625 C 80.144531 174.175781 79.96875 169.15625 80.183594 168.71875 C 35.234375 165.359375 0.277344 127.699219 0.277344 82.574219 L 0.277344 49.535156 C 0.277344 38.710938 9.097656 29.898438 19.914062 29.898438 L 26.898438 29.898438 L 26.898438 19.335938 C 26.898438 11.261719 33.402344 4.761719 41.476562 4.761719 C 45.492188 4.761719 49.113281 6.375 51.777344 9.035156 C 54.398438 11.65625 56.011719 15.324219 56.011719 19.335938 L 56.011719 53.550781 C 56.011719 61.582031 49.507812 68.125 41.476562 68.125 C 33.40625 68.125 26.898438 61.582031 26.898438 53.550781 L 26.898438 42.988281 L 19.914062 42.988281 C 16.292969 42.988281 13.371094 45.914062 13.371094 49.535156 L 13.371094 82.574219 C 13.371094 96.101562 17.039062 108.757812 23.496094 119.625 C 31.4375 131.714844 33.269531 132.714844 33.269531 132.714844 C 47.761719 148.167969 67.222656 155.890625 86.6875 155.890625 C 106.152344 155.890625 125.613281 148.167969 140.101562 132.714844 C 140.101562 132.714844 141.9375 131.714844 149.878906 119.625 C 156.335938 108.757812 160.003906 96.101562 160.003906 82.574219 L 160.003906 49.535156 C 160.003906 45.910156 157.078125 42.988281 153.457031 42.988281 L 146.472656 42.988281 L 146.472656 53.550781 C 146.472656 61.582031 139.972656 68.125 131.894531 68.125 C 123.867188 68.125 117.363281 61.582031 117.363281 53.550781 L 117.363281 19.335938 C 117.363281 15.324219 118.976562 11.65625 121.597656 9.035156 C 124.257812 6.375 127.882812 4.761719 131.894531 4.761719 C 139.96875 4.761719 146.472656 11.261719 146.472656 19.335938 L 146.472656 29.898438 L 153.457031 29.898438 C 164.28125 29.898438 173.09375 38.714844 173.09375 49.535156 L 173.09375 82.574219 C 173.09375 127.695312 138.140625 165.359375 93.1875 168.722656 C 93.410156 169.160156 93.230469 174.699219 93.230469 182.644531 C 93.230469 213.0625 118.109375 237.808594 148.742188 237.808594 C 178.855469 237.808594 203.472656 213.851562 204.210938 184.085938 C 137.003906 149.914062 178.59375 95.890625 210.804688 117.664062 C 242.964844 95.753906 284.644531 149.957031 217.304688 184.128906 Z M 217.308594 184.125 " fill-opacity="1" fill-rule="nonzero"/></g><path fill="#11a1de" d="M 120.039062 89.769531 L 120.039062 113.496094 C 120.039062 115.417969 118.480469 116.976562 116.558594 116.976562 L 102.015625 116.976562 L 102.015625 131.519531 C 102.015625 133.441406 100.453125 135 98.535156 135 L 74.804688 135 C 72.882812 135 71.324219 133.441406 71.324219 131.519531 L 71.324219 116.976562 L 56.78125 116.976562 C 54.859375 116.976562 53.300781 115.417969 53.300781 113.496094 L 53.300781 89.769531 C 53.300781 87.847656 54.859375 86.289062 56.78125 86.289062 L 71.324219 86.289062 L 71.324219 71.746094 C 71.324219 69.824219 72.882812 68.265625 74.804688 68.265625 L 98.535156 68.265625 C 100.453125 68.265625 102.015625 69.824219 102.015625 71.746094 L 102.015625 86.289062 L 116.558594 86.289062 C 118.480469 86.289062 120.039062 87.847656 120.039062 89.769531 Z M 120.039062 89.769531 " fill-opacity="1" fill-rule="nonzero"/><g clip-path="url(#05d96eb2d6)"><path fill="#ffffff" d="M 233.613281 135.425781 C 229.183594 127.539062 220.742188 122.210938 211.050781 122.210938 C 196.765625 122.210938 185.183594 133.792969 185.183594 148.078125 C 185.183594 151.261719 185.761719 154.3125 186.8125 157.128906 C 186.425781 155.613281 186.21875 154.023438 186.21875 152.386719 C 186.21875 148.824219 187.199219 145.488281 188.902344 142.640625 C 188.261719 141.890625 187.878906 140.917969 187.890625 139.855469 C 187.910156 137.605469 189.722656 135.746094 191.972656 135.667969 C 194.410156 135.589844 196.402344 137.570312 196.34375 140.003906 C 196.285156 142.226562 194.480469 144.046875 192.257812 144.121094 C 191.757812 144.136719 191.273438 144.0625 190.824219 143.917969 C 189.363281 146.402344 188.523438 149.296875 188.523438 152.386719 C 188.523438 161.621094 196.042969 169.121094 205.277344 169.101562 C 208.207031 169.097656 210.957031 168.335938 213.351562 167.007812 C 215.828125 165.632812 216.195312 162.21875 214.0625 160.351562 C 211.925781 158.488281 209.359375 156.253906 206.265625 153.042969 C 196.3125 142.71875 203.351562 134.191406 210.472656 134.460938 C 214.3125 134.609375 217.441406 136.992188 219.125 138.59375 C 220.808594 136.992188 223.9375 134.609375 227.777344 134.460938 C 229.203125 134.40625 231.6875 134.554688 233.613281 135.425781 " fill-opacity="1" fill-rule="nonzero"/></g><path fill="#ffffff" d="M 222.484375 158.273438 L 222.484375 152.9375 L 227.820312 152.9375 L 227.820312 146.253906 L 222.484375 146.253906 L 222.484375 140.917969 L 215.800781 140.917969 L 215.800781 146.253906 L 210.464844 146.253906 L 210.464844 152.9375 L 215.800781 152.9375 L 215.800781 158.273438 L 222.484375 158.273438 " fill-opacity="1" fill-rule="nonzero"/><path fill="#ffffff" d="M 236.726562 144.921875 C 236.238281 147.382812 234.78125 150.144531 231.984375 153.042969 C 228.207031 156.960938 225.214844 159.425781 222.839844 161.539062 C 221.703125 162.550781 220.648438 163.648438 219.652344 164.800781 C 216.164062 168.847656 211.003906 171.410156 205.242188 171.410156 C 201.632812 171.410156 198.257812 170.402344 195.382812 168.660156 C 199.730469 171.972656 205.160156 173.945312 211.050781 173.945312 C 225.335938 173.945312 236.917969 162.363281 236.917969 148.078125 C 236.917969 147.007812 236.851562 145.957031 236.726562 144.921875 " fill-opacity="1" fill-rule="nonzero"/><path fill="#ffffff" d="M 194.472656 139.894531 C 194.472656 138.59375 193.417969 137.539062 192.117188 137.539062 C 190.816406 137.539062 189.757812 138.59375 189.757812 139.894531 C 189.757812 141.195312 190.816406 142.25 192.117188 142.25 C 193.417969 142.25 194.472656 141.195312 194.472656 139.894531 " fill-opacity="1" fill-rule="nonzero"/><g clip-path="url(#6b281d083f)"><g transform="matrix(1, 0, 0, 1, 68, 178)"><g clip-path="url(#2999b20e8e)"><g fill="#ffffff" fill-opacity="1"><g transform="translate(10.326987, 80.360073)"><g><path d="M 7.121094 11.398438 C 5.265625 11.398438 3.496094 11.039062 1.808594 10.328125 C 0.160156 9.636719 -1.304688 8.648438 -2.589844 7.363281 C -3.871094 6.078125 -4.859375 4.613281 -5.554688 2.96875 C -6.265625 1.277344 -6.621094 -0.492188 -6.621094 -2.34375 L -6.621094 -58.433594 C -6.621094 -60.285156 -6.265625 -62.058594 -5.554688 -63.746094 C -4.859375 -65.394531 -3.871094 -66.859375 -2.589844 -68.140625 C -1.304688 -69.425781 0.160156 -70.414062 1.808594 -71.109375 C 3.496094 -71.820312 5.265625 -72.175781 7.121094 -72.175781 L 20.839844 -72.175781 C 23.835938 -72.175781 26.574219 -71.398438 29.046875 -69.84375 C 31.324219 -68.414062 33.152344 -66.457031 34.535156 -63.96875 L 24.570312 -58.433594 L 34.324219 -64.328125 L 46.914062 -43.488281 L 37.160156 -37.59375 L 27.40625 -43.488281 L 39.996094 -64.328125 L 49.75 -58.433594 L 39.789062 -63.96875 C 41.171875 -66.457031 43 -68.414062 45.273438 -69.84375 C 47.75 -71.398438 50.488281 -72.175781 53.484375 -72.175781 L 67.203125 -72.175781 C 69.054688 -72.175781 70.828125 -71.820312 72.515625 -71.109375 C 74.160156 -70.414062 75.628906 -69.425781 76.910156 -68.140625 C 78.195312 -66.859375 79.183594 -65.394531 79.878906 -63.746094 C 80.589844 -62.058594 80.945312 -60.285156 80.945312 -58.433594 L 80.945312 -2.34375 C 80.945312 -0.492188 80.589844 1.277344 79.878906 2.96875 C 79.183594 4.613281 78.195312 6.078125 76.910156 7.363281 C 75.628906 8.648438 74.160156 9.636719 72.515625 10.328125 C 70.828125 11.039062 69.054688 11.398438 67.203125 11.398438 L 51.488281 11.398438 C 49.636719 11.398438 47.863281 11.039062 46.175781 10.328125 C 44.527344 9.636719 43.0625 8.648438 41.777344 7.363281 C 40.496094 6.078125 39.507812 4.613281 38.8125 2.96875 C 38.101562 1.277344 37.746094 -0.492188 37.746094 -2.34375 L 37.746094 -26.132812 L 49.144531 -26.132812 L 58.867188 -20.191406 L 53.136719 -10.816406 C 52.011719 -9.042969 50.734375 -7.570312 49.3125 -6.398438 C 46.714844 -4.257812 43.679688 -3.191406 40.199219 -3.191406 L 34.121094 -3.191406 C 30.644531 -3.191406 27.605469 -4.257812 25.011719 -6.398438 C 23.585938 -7.570312 22.347656 -8.984375 21.296875 -10.640625 L 15.453125 -20.191406 L 25.179688 -26.132812 L 36.574219 -26.132812 L 36.574219 -2.34375 C 36.574219 -0.492188 36.21875 1.277344 35.507812 2.96875 C 34.816406 4.613281 33.828125 6.078125 32.542969 7.363281 C 31.257812 8.648438 29.792969 9.636719 28.148438 10.328125 C 26.457031 11.039062 24.6875 11.398438 22.835938 11.398438 Z M 7.121094 -11.398438 L 22.835938 -11.398438 C 21.621094 -11.398438 20.441406 -11.15625 19.300781 -10.675781 C 18.207031 -10.214844 17.246094 -9.574219 16.425781 -8.753906 C 15.605469 -7.933594 14.964844 -6.972656 14.503906 -5.875 C 14.023438 -4.738281 13.78125 -3.558594 13.78125 -2.34375 L 13.78125 -66.640625 L 40.523438 -22.875 C 40.28125 -23.257812 39.941406 -23.628906 39.5 -23.992188 C 38.636719 -24.703125 37.675781 -25.230469 36.621094 -25.574219 C 35.785156 -25.847656 34.953125 -25.984375 34.121094 -25.984375 L 40.199219 -25.984375 C 39.371094 -25.984375 38.539062 -25.847656 37.703125 -25.574219 C 36.648438 -25.230469 35.6875 -24.703125 34.820312 -23.992188 C 34.382812 -23.628906 34.003906 -23.199219 33.6875 -22.699219 L 60.539062 -66.640625 L 60.539062 -2.34375 C 60.539062 -3.558594 60.300781 -4.738281 59.820312 -5.875 C 59.359375 -6.972656 58.71875 -7.933594 57.894531 -8.753906 C 57.074219 -9.574219 56.117188 -10.214844 55.019531 -10.675781 C 53.882812 -11.15625 52.703125 -11.398438 51.488281 -11.398438 L 67.203125 -11.398438 C 65.988281 -11.398438 64.808594 -11.15625 63.671875 -10.675781 C 62.574219 -10.214844 61.613281 -9.574219 60.792969 -8.753906 C 59.972656 -7.933594 59.332031 -6.972656 58.871094 -5.875 C 58.390625 -4.738281 58.152344 -3.558594 58.152344 -2.34375 L 58.152344 -58.433594 C 58.152344 -57.21875 58.390625 -56.039062 58.871094 -54.902344 C 59.332031 -53.804688 59.972656 -52.84375 60.792969 -52.023438 C 61.613281 -51.203125 62.574219 -50.5625 63.671875 -50.101562 C 64.808594 -49.621094 65.988281 -49.382812 67.203125 -49.382812 L 53.484375 -49.382812 C 54.863281 -49.382812 56.164062 -49.765625 57.394531 -50.539062 C 58.425781 -51.1875 59.199219 -51.972656 59.714844 -52.898438 L 59.613281 -52.71875 L 37.160156 -15.558594 L 14.710938 -52.71875 L 14.609375 -52.898438 C 15.125 -51.972656 15.894531 -51.1875 16.925781 -50.539062 C 18.15625 -49.765625 19.460938 -49.382812 20.839844 -49.382812 L 7.121094 -49.382812 C 8.335938 -49.382812 9.511719 -49.621094 10.652344 -50.101562 C 11.75 -50.5625 12.707031 -51.203125 13.527344 -52.023438 C 14.347656 -52.84375 14.992188 -53.804688 15.453125 -54.902344 C 15.933594 -56.039062 16.171875 -57.21875 16.171875 -58.433594 L 16.171875 -2.34375 C 16.171875 -3.558594 15.933594 -4.738281 15.453125 -5.875 C 14.992188 -6.972656 14.347656 -7.933594 13.527344 -8.753906 C 12.707031 -9.574219 11.75 -10.214844 10.652344 -10.675781 C 9.511719 -11.15625 8.335938 -11.398438 7.121094 -11.398438 Z M 7.121094 -11.398438 "/></g></g></g><g fill="#ffffff" fill-opacity="1"><g transform="translate(78.134554, 80.360073)"><g><path d="M 30.128906 12.265625 C 22.546875 12.265625 15.957031 11.160156 10.359375 8.953125 C 4.136719 6.496094 -0.6875 3.023438 -4.113281 -1.464844 C -7.722656 -6.199219 -9.628906 -11.453125 -9.828125 -17.234375 L -9.832031 -17.429688 L -9.832031 -17.625 C -9.832031 -19.414062 -9.492188 -21.125 -8.804688 -22.761719 C -8.132812 -24.363281 -7.175781 -25.785156 -5.929688 -27.03125 C -4.6875 -28.273438 -3.261719 -29.234375 -1.660156 -29.90625 C -0.0273438 -30.589844 1.683594 -30.933594 3.472656 -30.933594 L 19.96875 -30.933594 C 22.285156 -30.933594 24.378906 -30.542969 26.261719 -29.769531 C 27.832031 -29.125 29.410156 -28.140625 31 -26.816406 L 23.703125 -18.058594 L 30.785156 -26.988281 C 30.511719 -27.203125 30.234375 -27.355469 29.949219 -27.445312 C 29.898438 -27.460938 29.863281 -27.472656 29.84375 -27.472656 C 29.914062 -27.464844 30.007812 -27.460938 30.128906 -27.460938 C 30.59375 -27.460938 30.960938 -27.476562 31.234375 -27.515625 C 31.261719 -27.519531 31.285156 -27.523438 31.304688 -27.527344 C 31.304688 -27.527344 31.296875 -27.523438 31.285156 -27.523438 C 31.1875 -27.5 31.074219 -27.464844 30.945312 -27.417969 C 29.960938 -27.058594 29.027344 -26.433594 28.136719 -25.542969 C 27.277344 -24.683594 26.601562 -23.691406 26.101562 -22.558594 C 25.53125 -21.261719 25.242188 -19.90625 25.242188 -18.492188 C 25.242188 -17.207031 25.496094 -15.964844 26.007812 -14.769531 C 26.472656 -13.675781 27.109375 -12.714844 27.921875 -11.886719 C 28.765625 -11.027344 29.632812 -10.441406 30.511719 -10.132812 C 29.691406 -10.421875 27.496094 -10.804688 23.933594 -11.277344 C 14.25 -12.554688 6.6875 -15.511719 1.246094 -20.152344 C -1.957031 -22.882812 -4.375 -26.125 -6.007812 -29.875 C -7.574219 -33.464844 -8.359375 -37.402344 -8.359375 -41.675781 C -8.359375 -48.042969 -6.507812 -53.746094 -2.808594 -58.792969 C 0.664062 -63.527344 5.367188 -67.140625 11.300781 -69.632812 C 16.707031 -71.90625 22.78125 -73.042969 29.519531 -73.042969 C 36.59375 -73.042969 42.929688 -71.78125 48.53125 -69.257812 C 54.34375 -66.636719 58.929688 -63.1875 62.28125 -58.90625 C 65.984375 -54.179688 67.949219 -49.265625 68.167969 -44.167969 L 68.179688 -43.921875 L 68.179688 -43.671875 C 68.179688 -41.882812 67.835938 -40.171875 67.152344 -38.539062 C 66.480469 -36.9375 65.523438 -35.511719 64.277344 -34.269531 C 63.101562 -33.09375 61.769531 -32.171875 60.285156 -31.503906 C 58.589844 -30.746094 56.816406 -30.367188 54.960938 -30.367188 L 37.59375 -30.367188 C 35.195312 -30.367188 33.035156 -30.785156 31.117188 -31.625 C 29.53125 -32.320312 27.988281 -33.339844 26.5 -34.679688 L 34.121094 -43.152344 L 26.707031 -34.5 C 27.210938 -34.066406 27.773438 -33.746094 28.394531 -33.535156 C 28.816406 -33.390625 29.191406 -33.320312 29.519531 -33.320312 C 29.496094 -33.320312 29.472656 -33.316406 29.457031 -33.316406 C 29.464844 -33.316406 29.472656 -33.320312 29.492188 -33.320312 C 29.597656 -33.328125 29.726562 -33.347656 29.871094 -33.375 C 30.617188 -33.519531 31.371094 -33.816406 32.136719 -34.261719 C 33.546875 -35.085938 34.671875 -36.230469 35.507812 -37.691406 C 36.335938 -39.140625 36.75 -40.671875 36.75 -42.285156 C 36.75 -43.621094 36.488281 -44.90625 35.960938 -46.136719 C 35.515625 -47.175781 34.917969 -48.097656 34.167969 -48.894531 C 33.414062 -49.695312 32.644531 -50.265625 31.855469 -50.601562 C 31.769531 -50.636719 31.699219 -50.664062 31.640625 -50.683594 C 31.652344 -50.679688 31.683594 -50.671875 31.730469 -50.65625 C 31.953125 -50.59375 32.246094 -50.527344 32.609375 -50.453125 C 33.582031 -50.25 34.847656 -50.054688 36.402344 -49.859375 C 43.277344 -48.964844 48.953125 -47.558594 53.425781 -45.636719 C 59.089844 -43.199219 63.347656 -39.726562 66.199219 -35.21875 C 68.96875 -30.84375 70.351562 -25.644531 70.351562 -19.621094 C 70.351562 -12.839844 68.269531 -6.855469 64.105469 -1.671875 C 60.332031 3.019531 55.300781 6.574219 49.019531 8.988281 C 43.332031 11.171875 37.035156 12.265625 30.128906 12.265625 Z M 30.128906 -10.527344 C 34.21875 -10.527344 37.789062 -11.113281 40.847656 -12.289062 C 43.300781 -13.230469 45.132812 -14.453125 46.339844 -15.953125 C 47.152344 -16.964844 47.558594 -18.1875 47.558594 -19.621094 C 47.558594 -21.242188 47.351562 -22.382812 46.933594 -23.039062 C 46.601562 -23.566406 45.765625 -24.117188 44.425781 -24.695312 C 41.894531 -25.78125 38.28125 -26.628906 33.578125 -27.242188 C 28.816406 -27.835938 25.269531 -28.632812 22.929688 -29.625 C 20.78125 -30.539062 18.992188 -31.761719 17.558594 -33.285156 C 16.46875 -34.445312 15.613281 -35.746094 15 -37.183594 C 14.304688 -38.8125 13.957031 -40.511719 13.957031 -42.285156 C 13.957031 -44.707031 14.542969 -46.945312 15.71875 -49 C 16.902344 -51.074219 18.546875 -52.722656 20.652344 -53.953125 C 23.121094 -55.390625 26.078125 -56.113281 29.519531 -56.113281 C 31.703125 -56.113281 33.769531 -55.78125 35.726562 -55.117188 C 37.878906 -54.382812 39.816406 -53.28125 41.539062 -51.804688 L 41.644531 -51.714844 L 41.746094 -51.625 C 41.414062 -51.921875 40.914062 -52.21875 40.253906 -52.507812 C 39.261719 -52.941406 38.375 -53.160156 37.59375 -53.160156 L 54.960938 -53.160156 C 53.566406 -53.160156 52.234375 -52.875 50.960938 -52.304688 C 49.894531 -51.824219 48.960938 -51.1875 48.160156 -50.386719 C 47.292969 -49.519531 46.617188 -48.507812 46.132812 -47.351562 C 45.636719 -46.167969 45.386719 -44.941406 45.386719 -43.671875 L 56.785156 -43.671875 L 45.398438 -43.179688 C 45.398438 -43.128906 45.402344 -43.089844 45.410156 -43.066406 C 45.398438 -43.117188 45.371094 -43.1875 45.332031 -43.277344 C 45.148438 -43.71875 44.816406 -44.242188 44.339844 -44.847656 C 43.292969 -46.183594 41.570312 -47.394531 39.164062 -48.476562 C 36.542969 -49.660156 33.328125 -50.25 29.519531 -50.25 C 25.84375 -50.25 22.714844 -49.707031 20.132812 -48.621094 C 18.078125 -47.757812 16.554688 -46.65625 15.570312 -45.3125 C 14.8125 -44.277344 14.433594 -43.066406 14.433594 -41.675781 C 14.433594 -40.566406 14.585938 -39.667969 14.886719 -38.980469 C 15.117188 -38.445312 15.5 -37.953125 16.035156 -37.496094 C 16.878906 -36.777344 18.070312 -36.128906 19.613281 -35.554688 C 21.609375 -34.8125 24.054688 -34.253906 26.945312 -33.871094 C 32.066406 -33.1875 35.777344 -32.441406 38.078125 -31.632812 C 40.523438 -30.773438 42.558594 -29.511719 44.1875 -27.855469 C 45.390625 -26.632812 46.320312 -25.242188 46.980469 -23.6875 C 47.683594 -22.035156 48.035156 -20.300781 48.035156 -18.492188 C 48.035156 -16.707031 47.675781 -14.996094 46.957031 -13.363281 C 46.308594 -11.890625 45.40625 -10.582031 44.253906 -9.425781 C 42.769531 -7.941406 40.945312 -6.804688 38.777344 -6.011719 C 36.324219 -5.113281 33.441406 -4.667969 30.128906 -4.667969 C 24.875 -4.667969 20.375 -6.152344 16.621094 -9.128906 L 16.511719 -9.214844 L 16.40625 -9.304688 C 16.378906 -9.328125 16.359375 -9.34375 16.347656 -9.355469 C 16.378906 -9.332031 16.417969 -9.300781 16.46875 -9.269531 C 16.78125 -9.0625 17.15625 -8.871094 17.585938 -8.695312 C 18.480469 -8.324219 19.277344 -8.140625 19.96875 -8.140625 L 3.472656 -8.140625 C 4.742188 -8.140625 5.96875 -8.386719 7.152344 -8.886719 C 8.308594 -9.367188 9.316406 -10.042969 10.1875 -10.914062 C 11.054688 -11.78125 11.730469 -12.792969 12.214844 -13.945312 C 12.710938 -15.128906 12.960938 -16.359375 12.960938 -17.625 L 1.5625 -17.625 L 12.953125 -18.019531 C 12.984375 -17.082031 13.335938 -16.171875 14.011719 -15.292969 C 14.867188 -14.167969 16.441406 -13.152344 18.726562 -12.25 C 21.636719 -11.101562 25.4375 -10.527344 30.128906 -10.527344 Z M 30.128906 -10.527344 "/></g></g></g><g fill="#145da0" fill-opacity="1"><g transform="translate(10.326987, 80.360073)"><g><path d="M 7.125 0 C 6.488281 0 5.9375 -0.226562 5.46875 -0.6875 C 5.007812 -1.15625 4.78125 -1.707031 4.78125 -2.34375 L 4.78125 -58.4375 C 4.78125 -59.070312 5.007812 -59.617188 5.46875 -60.078125 C 5.9375 -60.546875 6.488281 -60.78125 7.125 -60.78125 L 20.84375 -60.78125 C 22.457031 -60.78125 23.703125 -60 24.578125 -58.4375 L 37.15625 -37.59375 L 49.75 -58.4375 C 50.625 -60 51.867188 -60.78125 53.484375 -60.78125 L 67.203125 -60.78125 C 67.835938 -60.78125 68.382812 -60.546875 68.84375 -60.078125 C 69.3125 -59.617188 69.546875 -59.070312 69.546875 -58.4375 L 69.546875 -2.34375 C 69.546875 -1.707031 69.3125 -1.15625 68.84375 -0.6875 C 68.382812 -0.226562 67.835938 0 67.203125 0 L 51.484375 0 C 50.847656 0 50.296875 -0.226562 49.828125 -0.6875 C 49.367188 -1.15625 49.140625 -1.707031 49.140625 -2.34375 L 49.140625 -26.140625 L 43.421875 -16.765625 C 43.015625 -16.117188 42.5625 -15.59375 42.0625 -15.1875 C 41.570312 -14.789062 40.953125 -14.59375 40.203125 -14.59375 L 34.125 -14.59375 C 33.375 -14.59375 32.75 -14.789062 32.25 -15.1875 C 31.757812 -15.59375 31.3125 -16.117188 30.90625 -16.765625 L 25.1875 -26.140625 L 25.1875 -2.34375 C 25.1875 -1.707031 24.953125 -1.15625 24.484375 -0.6875 C 24.023438 -0.226562 23.472656 0 22.828125 0 Z M 7.125 0 "/></g></g></g><g fill="#145da0" fill-opacity="1"><g transform="translate(78.134554, 80.360073)"><g><path d="M 30.125 0.875 C 23.988281 0.875 18.789062 0.0351562 14.53125 -1.640625 C 10.28125 -3.328125 7.082031 -5.570312 4.9375 -8.375 C 2.800781 -11.1875 1.675781 -14.269531 1.5625 -17.625 C 1.5625 -18.144531 1.75 -18.59375 2.125 -18.96875 C 2.5 -19.34375 2.945312 -19.53125 3.46875 -19.53125 L 19.96875 -19.53125 C 20.78125 -19.53125 21.429688 -19.425781 21.921875 -19.21875 C 22.410156 -19.019531 23.003906 -18.632812 23.703125 -18.0625 C 25.378906 -16.726562 27.519531 -16.0625 30.125 -16.0625 C 32.09375 -16.0625 33.671875 -16.273438 34.859375 -16.703125 C 36.046875 -17.140625 36.640625 -17.738281 36.640625 -18.5 C 36.640625 -19.539062 35.859375 -20.332031 34.296875 -20.875 C 32.734375 -21.425781 29.78125 -21.992188 25.4375 -22.578125 C 10.5 -24.546875 3.03125 -30.910156 3.03125 -41.671875 C 3.03125 -45.554688 4.144531 -49.015625 6.375 -52.046875 C 8.601562 -55.085938 11.710938 -57.445312 15.703125 -59.125 C 19.703125 -60.800781 24.304688 -61.640625 29.515625 -61.640625 C 34.960938 -61.640625 39.738281 -60.710938 43.84375 -58.859375 C 47.957031 -57.015625 51.113281 -54.6875 53.3125 -51.875 C 55.507812 -49.070312 56.664062 -46.335938 56.78125 -43.671875 C 56.78125 -43.148438 56.59375 -42.703125 56.21875 -42.328125 C 55.84375 -41.953125 55.425781 -41.765625 54.96875 -41.765625 L 37.59375 -41.765625 C 36.78125 -41.765625 36.140625 -41.863281 35.671875 -42.0625 C 35.210938 -42.269531 34.695312 -42.632812 34.125 -43.15625 C 32.90625 -44.195312 31.367188 -44.71875 29.515625 -44.71875 C 26.742188 -44.71875 25.359375 -43.90625 25.359375 -42.28125 C 25.359375 -41.414062 26.035156 -40.691406 27.390625 -40.109375 C 28.753906 -39.535156 31.285156 -39.015625 34.984375 -38.546875 C 40.773438 -37.796875 45.421875 -36.664062 48.921875 -35.15625 C 52.429688 -33.65625 54.976562 -31.644531 56.5625 -29.125 C 58.15625 -26.613281 58.953125 -23.445312 58.953125 -19.625 C 58.953125 -15.507812 57.707031 -11.90625 55.21875 -8.8125 C 52.726562 -5.71875 49.296875 -3.328125 44.921875 -1.640625 C 40.554688 0.0351562 35.625 0.875 30.125 0.875 Z M 30.125 0.875 "/></g></g></g></g></g></g></g></g></svg>