<svg xmlns="http://www.w3.org/2000/svg" xmlns:xlink="http://www.w3.org/1999/xlink" width="500" zoomAndPan="magnify" viewBox="0 0 375 374.999991" height="500" preserveAspectRatio="xMidYMid meet" version="1.0"><defs><g/><clipPath id="79af1878a8"><path d="M 0.457031 2.082031 L 67 2.082031 L 67 66.820312 L 0.457031 66.820312 Z M 0.457031 2.082031 " clip-rule="nonzero"/></clipPath><clipPath id="22eb167be0"><path d="M 48.886719 32.820312 L 62 32.820312 L 62 46 L 48.886719 46 Z M 48.886719 32.820312 " clip-rule="nonzero"/></clipPath><clipPath id="754a451c70"><path d="M 51 38 L 62.519531 38 L 62.519531 46.453125 L 51 46.453125 Z M 51 38 " clip-rule="nonzero"/></clipPath><clipPath id="8a9d9de5bb"><path d="M 18 2 L 39.71875 2 L 39.71875 25 L 18 25 Z M 18 2 " clip-rule="nonzero"/></clipPath><clipPath id="2f1359e244"><rect x="0" width="40" y="0" height="28"/></clipPath><clipPath id="e0d3732255"><path d="M 81 10 L 287.640625 10 L 287.640625 78.441406 L 81 78.441406 Z M 81 10 " clip-rule="nonzero"/></clipPath><clipPath id="170f1e98c7"><rect x="0" width="207" y="0" height="69"/></clipPath><clipPath id="6f768230c6"><rect x="0" width="288" y="0" height="79"/></clipPath></defs><g transform="matrix(1, 0, 0, 1, 51, 133)"><g clip-path="url(#6f768230c6)"><g clip-path="url(#79af1878a8)"><path fill="#145da0" d="M 57.296875 49.027344 C 57.089844 58.703125 49.117188 66.503906 39.351562 66.503906 C 29.445312 66.503906 21.394531 58.488281 21.394531 48.640625 C 21.394531 46.421875 21.347656 45.109375 21.40625 44.996094 C 9.640625 44.117188 0.492188 34.257812 0.492188 22.445312 L 0.492188 13.800781 C 0.492188 10.964844 2.796875 8.660156 5.628906 8.660156 L 7.457031 8.660156 L 7.457031 5.894531 C 7.457031 3.78125 9.160156 2.082031 11.273438 2.082031 C 12.324219 2.082031 13.273438 2.503906 13.96875 3.199219 C 14.65625 3.886719 15.078125 4.84375 15.078125 5.894531 L 15.078125 14.851562 C 15.078125 16.953125 13.375 18.664062 11.273438 18.664062 C 9.160156 18.664062 7.457031 16.953125 7.457031 14.851562 L 7.457031 12.085938 L 5.628906 12.085938 C 4.683594 12.085938 3.917969 12.851562 3.917969 13.800781 L 3.917969 22.445312 C 3.917969 25.988281 4.878906 29.300781 6.566406 32.144531 C 8.644531 35.308594 9.125 35.570312 9.125 35.570312 C 12.917969 39.617188 18.011719 41.636719 23.105469 41.636719 C 28.203125 41.636719 33.296875 39.617188 37.089844 35.570312 C 37.089844 35.570312 37.570312 35.308594 39.648438 32.144531 C 41.335938 29.300781 42.296875 25.988281 42.296875 22.445312 L 42.296875 13.800781 C 42.296875 12.851562 41.53125 12.085938 40.585938 12.085938 L 38.757812 12.085938 L 38.757812 14.851562 C 38.757812 16.953125 37.054688 18.664062 34.941406 18.664062 C 32.839844 18.664062 31.136719 16.953125 31.136719 14.851562 L 31.136719 5.894531 C 31.136719 4.84375 31.558594 3.886719 32.246094 3.199219 C 32.941406 2.503906 33.890625 2.082031 34.941406 2.082031 C 37.054688 2.082031 38.757812 3.78125 38.757812 5.894531 L 38.757812 8.660156 L 40.585938 8.660156 C 43.417969 8.660156 45.722656 10.96875 45.722656 13.800781 L 45.722656 22.445312 C 45.722656 34.257812 36.574219 44.117188 24.808594 44.996094 C 24.867188 45.109375 24.820312 46.558594 24.820312 48.640625 C 24.820312 56.601562 31.332031 63.078125 39.351562 63.078125 C 47.230469 63.078125 53.675781 56.808594 53.867188 49.019531 C 36.277344 40.074219 47.164062 25.933594 55.59375 31.632812 C 64.011719 25.898438 74.921875 40.085938 57.296875 49.027344 Z M 57.296875 49.027344 " fill-opacity="1" fill-rule="nonzero"/></g><path fill="#11a1de" d="M 31.835938 24.332031 L 31.835938 30.539062 C 31.835938 31.042969 31.429688 31.453125 30.925781 31.453125 L 27.117188 31.453125 L 27.117188 35.257812 C 27.117188 35.761719 26.710938 36.167969 26.207031 36.167969 L 19.996094 36.167969 C 19.496094 36.167969 19.085938 35.761719 19.085938 35.257812 L 19.085938 31.453125 L 15.28125 31.453125 C 14.777344 31.453125 14.367188 31.042969 14.367188 30.539062 L 14.367188 24.332031 C 14.367188 23.828125 14.777344 23.417969 15.28125 23.417969 L 19.085938 23.417969 L 19.085938 19.613281 C 19.085938 19.109375 19.496094 18.703125 19.996094 18.703125 L 26.207031 18.703125 C 26.710938 18.703125 27.117188 19.109375 27.117188 19.613281 L 27.117188 23.417969 L 30.925781 23.417969 C 31.429688 23.417969 31.835938 23.828125 31.835938 24.332031 Z M 31.835938 24.332031 " fill-opacity="1" fill-rule="nonzero"/><g clip-path="url(#22eb167be0)"><path fill="#ffffff" d="M 61.566406 36.28125 C 60.40625 34.214844 58.195312 32.820312 55.660156 32.820312 C 51.917969 32.820312 48.886719 35.851562 48.886719 39.59375 C 48.886719 40.425781 49.039062 41.222656 49.316406 41.960938 C 49.214844 41.5625 49.160156 41.148438 49.160156 40.71875 C 49.160156 39.789062 49.414062 38.914062 49.863281 38.167969 C 49.695312 37.972656 49.59375 37.71875 49.597656 37.441406 C 49.601562 36.851562 50.078125 36.363281 50.664062 36.34375 C 51.304688 36.324219 51.824219 36.84375 51.808594 37.480469 C 51.792969 38.0625 51.320312 38.539062 50.738281 38.554688 C 50.609375 38.5625 50.480469 38.542969 50.363281 38.503906 C 49.980469 39.152344 49.761719 39.910156 49.761719 40.71875 C 49.761719 43.136719 51.730469 45.101562 54.148438 45.09375 C 54.914062 45.09375 55.632812 44.894531 56.261719 44.546875 C 56.910156 44.1875 57.003906 43.292969 56.445312 42.804688 C 55.886719 42.316406 55.214844 41.734375 54.40625 40.890625 C 51.800781 38.191406 53.644531 35.957031 55.507812 36.027344 C 56.511719 36.066406 57.332031 36.691406 57.773438 37.109375 C 58.214844 36.691406 59.03125 36.066406 60.035156 36.027344 C 60.410156 36.015625 61.058594 36.050781 61.566406 36.28125 " fill-opacity="1" fill-rule="nonzero"/></g><path fill="#ffffff" d="M 58.652344 42.261719 L 58.652344 40.863281 L 60.046875 40.863281 L 60.046875 39.113281 L 58.652344 39.113281 L 58.652344 37.71875 L 56.902344 37.71875 L 56.902344 39.113281 L 55.503906 39.113281 L 55.503906 40.863281 L 56.902344 40.863281 L 56.902344 42.261719 L 58.652344 42.261719 " fill-opacity="1" fill-rule="nonzero"/><g clip-path="url(#754a451c70)"><path fill="#ffffff" d="M 62.378906 38.765625 C 62.25 39.410156 61.871094 40.132812 61.136719 40.890625 C 60.148438 41.917969 59.367188 42.5625 58.746094 43.117188 C 58.445312 43.382812 58.171875 43.667969 57.910156 43.96875 C 56.996094 45.027344 55.644531 45.699219 54.136719 45.699219 C 53.195312 45.699219 52.3125 45.4375 51.558594 44.980469 C 52.695312 45.847656 54.117188 46.363281 55.660156 46.363281 C 59.398438 46.363281 62.429688 43.332031 62.429688 39.59375 C 62.429688 39.3125 62.410156 39.035156 62.378906 38.765625 " fill-opacity="1" fill-rule="nonzero"/></g><path fill="#ffffff" d="M 51.320312 37.449219 C 51.320312 37.109375 51.042969 36.832031 50.703125 36.832031 C 50.363281 36.832031 50.085938 37.109375 50.085938 37.449219 C 50.085938 37.792969 50.363281 38.066406 50.703125 38.066406 C 51.042969 38.066406 51.320312 37.792969 51.320312 37.449219 " fill-opacity="1" fill-rule="nonzero"/><g transform="matrix(1, 0, 0, 1, 18, 47)"><g clip-path="url(#2f1359e244)"><g fill="#ffffff" fill-opacity="1"><g transform="translate(2.919186, 21.45814)"><g><path d="M 1.863281 2.984375 C 1.378906 2.984375 0.914062 2.890625 0.472656 2.703125 C 0.0429688 2.523438 -0.339844 2.261719 -0.675781 1.925781 C -1.011719 1.589844 -1.273438 1.207031 -1.453125 0.777344 C -1.640625 0.335938 -1.734375 -0.128906 -1.734375 -0.613281 L -1.734375 -15.292969 C -1.734375 -15.78125 -1.640625 -16.242188 -1.453125 -16.683594 C -1.273438 -17.117188 -1.011719 -17.5 -0.675781 -17.835938 C -0.339844 -18.171875 0.0429688 -18.429688 0.472656 -18.613281 C 0.914062 -18.796875 1.378906 -18.890625 1.863281 -18.890625 L 5.453125 -18.890625 C 6.238281 -18.890625 6.957031 -18.6875 7.601562 -18.28125 C 8.199219 -17.90625 8.675781 -17.394531 9.039062 -16.742188 L 6.429688 -15.292969 L 8.984375 -16.835938 L 12.28125 -11.382812 L 9.726562 -9.839844 L 7.171875 -11.382812 L 10.46875 -16.835938 L 13.023438 -15.292969 L 10.414062 -16.742188 C 10.777344 -17.394531 11.253906 -17.90625 11.851562 -18.28125 C 12.5 -18.6875 13.214844 -18.890625 14 -18.890625 L 17.589844 -18.890625 C 18.074219 -18.890625 18.539062 -18.796875 18.980469 -18.613281 C 19.410156 -18.429688 19.796875 -18.171875 20.132812 -17.835938 C 20.46875 -17.5 20.726562 -17.117188 20.90625 -16.683594 C 21.09375 -16.242188 21.1875 -15.78125 21.1875 -15.292969 L 21.1875 -0.613281 C 21.1875 -0.128906 21.09375 0.335938 20.90625 0.777344 C 20.726562 1.207031 20.46875 1.589844 20.132812 1.925781 C 19.796875 2.261719 19.410156 2.523438 18.980469 2.703125 C 18.539062 2.890625 18.074219 2.984375 17.589844 2.984375 L 13.476562 2.984375 C 12.992188 2.984375 12.527344 2.890625 12.085938 2.703125 C 11.65625 2.523438 11.273438 2.261719 10.933594 1.925781 C 10.597656 1.589844 10.339844 1.207031 10.160156 0.777344 C 9.972656 0.335938 9.878906 -0.128906 9.878906 -0.613281 L 9.878906 -6.839844 L 12.863281 -6.839844 L 15.410156 -5.285156 L 13.910156 -2.832031 C 13.613281 -2.367188 13.28125 -1.980469 12.90625 -1.675781 C 12.226562 -1.113281 11.433594 -0.835938 10.523438 -0.835938 L 8.929688 -0.835938 C 8.019531 -0.835938 7.226562 -1.113281 6.546875 -1.675781 C 6.171875 -1.980469 5.847656 -2.351562 5.574219 -2.785156 L 4.046875 -5.285156 L 6.589844 -6.839844 L 9.574219 -6.839844 L 9.574219 -0.613281 C 9.574219 -0.128906 9.480469 0.335938 9.292969 0.777344 C 9.113281 1.207031 8.855469 1.589844 8.519531 1.925781 C 8.183594 2.261719 7.796875 2.523438 7.367188 2.703125 C 6.925781 2.890625 6.460938 2.984375 5.976562 2.984375 Z M 1.863281 -2.984375 L 5.976562 -2.984375 C 5.660156 -2.984375 5.351562 -2.921875 5.050781 -2.792969 C 4.765625 -2.671875 4.515625 -2.507812 4.300781 -2.292969 C 4.085938 -2.078125 3.917969 -1.824219 3.796875 -1.539062 C 3.671875 -1.238281 3.609375 -0.933594 3.609375 -0.613281 L 3.609375 -17.441406 L 10.605469 -5.988281 C 10.542969 -6.085938 10.453125 -6.183594 10.339844 -6.28125 C 10.113281 -6.464844 9.863281 -6.605469 9.585938 -6.695312 C 9.367188 -6.765625 9.148438 -6.800781 8.929688 -6.800781 L 10.523438 -6.800781 C 10.304688 -6.800781 10.085938 -6.765625 9.867188 -6.695312 C 9.59375 -6.605469 9.339844 -6.464844 9.113281 -6.28125 C 9 -6.183594 8.902344 -6.070312 8.816406 -5.941406 L 15.847656 -17.441406 L 15.847656 -0.613281 C 15.847656 -0.933594 15.78125 -1.238281 15.65625 -1.539062 C 15.535156 -1.824219 15.367188 -2.078125 15.152344 -2.292969 C 14.9375 -2.507812 14.6875 -2.671875 14.402344 -2.792969 C 14.101562 -2.921875 13.792969 -2.984375 13.476562 -2.984375 L 17.589844 -2.984375 C 17.273438 -2.984375 16.964844 -2.921875 16.664062 -2.792969 C 16.378906 -2.671875 16.128906 -2.507812 15.914062 -2.292969 C 15.699219 -2.078125 15.53125 -1.824219 15.410156 -1.539062 C 15.285156 -1.238281 15.21875 -0.933594 15.21875 -0.613281 L 15.21875 -15.292969 C 15.21875 -14.976562 15.285156 -14.667969 15.410156 -14.371094 C 15.53125 -14.082031 15.699219 -13.832031 15.914062 -13.617188 C 16.128906 -13.402344 16.378906 -13.234375 16.664062 -13.113281 C 16.964844 -12.988281 17.273438 -12.925781 17.589844 -12.925781 L 14 -12.925781 C 14.359375 -12.925781 14.699219 -13.027344 15.023438 -13.230469 C 15.292969 -13.398438 15.496094 -13.605469 15.628906 -13.847656 L 15.601562 -13.796875 L 9.726562 -4.070312 L 3.851562 -13.796875 L 3.824219 -13.847656 C 3.957031 -13.605469 4.160156 -13.398438 4.429688 -13.230469 C 4.753906 -13.027344 5.09375 -12.925781 5.453125 -12.925781 L 1.863281 -12.925781 C 2.183594 -12.925781 2.488281 -12.988281 2.789062 -13.113281 C 3.074219 -13.234375 3.324219 -13.402344 3.542969 -13.617188 C 3.757812 -13.832031 3.921875 -14.082031 4.042969 -14.371094 C 4.171875 -14.667969 4.234375 -14.976562 4.234375 -15.292969 L 4.234375 -0.613281 C 4.234375 -0.933594 4.171875 -1.238281 4.042969 -1.539062 C 3.921875 -1.824219 3.757812 -2.078125 3.542969 -2.292969 C 3.324219 -2.507812 3.074219 -2.671875 2.789062 -2.792969 C 2.488281 -2.921875 2.183594 -2.984375 1.863281 -2.984375 Z M 1.863281 -2.984375 "/></g></g></g><g clip-path="url(#8a9d9de5bb)"><g fill="#ffffff" fill-opacity="1"><g transform="translate(20.667368, 21.45814)"><g><path d="M 7.886719 3.210938 C 5.902344 3.210938 4.175781 2.921875 2.710938 2.34375 C 1.082031 1.699219 -0.179688 0.792969 -1.078125 -0.382812 C -2.019531 -1.621094 -2.519531 -3 -2.570312 -4.511719 L -2.574219 -4.5625 L -2.574219 -4.613281 C -2.574219 -5.082031 -2.484375 -5.53125 -2.304688 -5.957031 C -2.128906 -6.375 -1.878906 -6.75 -1.550781 -7.074219 C -1.226562 -7.402344 -0.855469 -7.652344 -0.433594 -7.828125 C -0.0078125 -8.007812 0.441406 -8.097656 0.910156 -8.097656 L 5.226562 -8.097656 C 5.832031 -8.097656 6.382812 -7.996094 6.875 -7.792969 C 7.285156 -7.621094 7.699219 -7.363281 8.113281 -7.019531 L 6.203125 -4.726562 L 8.058594 -7.0625 C 7.988281 -7.121094 7.914062 -7.160156 7.839844 -7.183594 C 7.824219 -7.1875 7.816406 -7.191406 7.8125 -7.191406 C 7.828125 -7.1875 7.855469 -7.1875 7.886719 -7.1875 C 8.007812 -7.1875 8.105469 -7.191406 8.175781 -7.203125 C 8.183594 -7.203125 8.1875 -7.203125 8.195312 -7.203125 C 8.195312 -7.203125 8.191406 -7.203125 8.1875 -7.203125 C 8.164062 -7.199219 8.132812 -7.1875 8.097656 -7.175781 C 7.84375 -7.082031 7.597656 -6.917969 7.363281 -6.6875 C 7.140625 -6.460938 6.960938 -6.199219 6.832031 -5.902344 C 6.683594 -5.566406 6.605469 -5.210938 6.605469 -4.839844 C 6.605469 -4.503906 6.675781 -4.179688 6.808594 -3.867188 C 6.929688 -3.578125 7.097656 -3.328125 7.308594 -3.113281 C 7.53125 -2.886719 7.753906 -2.734375 7.988281 -2.652344 C 7.769531 -2.726562 7.195312 -2.828125 6.265625 -2.953125 C 3.730469 -3.285156 1.75 -4.058594 0.324219 -5.273438 C -0.511719 -5.988281 -1.144531 -6.835938 -1.574219 -7.820312 C -1.984375 -8.757812 -2.1875 -9.789062 -2.1875 -10.910156 C -2.1875 -12.574219 -1.703125 -14.066406 -0.734375 -15.386719 C 0.171875 -16.628906 1.40625 -17.574219 2.957031 -18.226562 C 4.371094 -18.820312 5.960938 -19.117188 7.726562 -19.117188 C 9.578125 -19.117188 11.238281 -18.789062 12.703125 -18.128906 C 14.222656 -17.441406 15.425781 -16.539062 16.300781 -15.417969 C 17.269531 -14.179688 17.785156 -12.894531 17.84375 -11.5625 L 17.847656 -11.496094 L 17.847656 -11.429688 C 17.847656 -10.964844 17.757812 -10.515625 17.578125 -10.085938 C 17.402344 -9.667969 17.148438 -9.296875 16.824219 -8.96875 C 16.515625 -8.660156 16.167969 -8.421875 15.777344 -8.246094 C 15.335938 -8.046875 14.871094 -7.949219 14.386719 -7.949219 L 9.839844 -7.949219 C 9.210938 -7.949219 8.648438 -8.058594 8.144531 -8.277344 C 7.730469 -8.460938 7.324219 -8.726562 6.9375 -9.078125 L 8.929688 -11.292969 L 6.988281 -9.03125 C 7.121094 -8.917969 7.269531 -8.832031 7.433594 -8.777344 C 7.542969 -8.738281 7.640625 -8.722656 7.726562 -8.722656 C 7.71875 -8.722656 7.714844 -8.722656 7.710938 -8.71875 C 7.710938 -8.722656 7.714844 -8.722656 7.71875 -8.722656 C 7.746094 -8.722656 7.78125 -8.730469 7.820312 -8.734375 C 8.015625 -8.773438 8.210938 -8.851562 8.410156 -8.96875 C 8.78125 -9.183594 9.074219 -9.484375 9.292969 -9.867188 C 9.511719 -10.246094 9.617188 -10.644531 9.617188 -11.066406 C 9.617188 -11.417969 9.550781 -11.753906 9.414062 -12.078125 C 9.296875 -12.347656 9.140625 -12.589844 8.941406 -12.796875 C 8.746094 -13.007812 8.542969 -13.15625 8.339844 -13.246094 C 8.316406 -13.253906 8.296875 -13.261719 8.28125 -13.265625 C 8.285156 -13.265625 8.292969 -13.261719 8.304688 -13.257812 C 8.363281 -13.242188 8.441406 -13.226562 8.535156 -13.207031 C 8.789062 -13.152344 9.121094 -13.101562 9.527344 -13.050781 C 11.328125 -12.816406 12.8125 -12.449219 13.984375 -11.945312 C 15.46875 -11.308594 16.582031 -10.398438 17.328125 -9.21875 C 18.050781 -8.074219 18.414062 -6.710938 18.414062 -5.136719 C 18.414062 -3.359375 17.867188 -1.792969 16.777344 -0.4375 C 15.792969 0.789062 14.476562 1.722656 12.832031 2.351562 C 11.34375 2.925781 9.695312 3.210938 7.886719 3.210938 Z M 7.886719 -2.753906 C 8.957031 -2.753906 9.890625 -2.910156 10.691406 -3.214844 C 11.335938 -3.464844 11.8125 -3.78125 12.128906 -4.175781 C 12.339844 -4.441406 12.449219 -4.761719 12.449219 -5.136719 C 12.449219 -5.558594 12.394531 -5.859375 12.285156 -6.03125 C 12.199219 -6.167969 11.980469 -6.3125 11.628906 -6.464844 C 10.964844 -6.746094 10.019531 -6.96875 8.789062 -7.128906 C 7.542969 -7.285156 6.613281 -7.496094 6.003906 -7.753906 C 5.441406 -7.992188 4.972656 -8.3125 4.597656 -8.710938 C 4.308594 -9.015625 4.085938 -9.355469 3.925781 -9.730469 C 3.742188 -10.160156 3.652344 -10.605469 3.652344 -11.066406 C 3.652344 -11.703125 3.808594 -12.289062 4.113281 -12.824219 C 4.425781 -13.367188 4.855469 -13.800781 5.40625 -14.121094 C 6.050781 -14.5 6.824219 -14.6875 7.726562 -14.6875 C 8.296875 -14.6875 8.839844 -14.601562 9.351562 -14.425781 C 9.914062 -14.234375 10.421875 -13.945312 10.871094 -13.558594 L 10.925781 -13.511719 C 10.839844 -13.589844 10.710938 -13.667969 10.535156 -13.742188 C 10.277344 -13.855469 10.042969 -13.914062 9.839844 -13.914062 L 14.386719 -13.914062 C 14.019531 -13.914062 13.671875 -13.839844 13.339844 -13.691406 C 13.058594 -13.566406 12.816406 -13.398438 12.605469 -13.1875 C 12.378906 -12.960938 12.203125 -12.695312 12.074219 -12.394531 C 11.945312 -12.085938 11.878906 -11.761719 11.878906 -11.429688 L 14.863281 -11.429688 L 11.882812 -11.300781 C 11.882812 -11.289062 11.882812 -11.277344 11.886719 -11.273438 C 11.882812 -11.285156 11.875 -11.304688 11.867188 -11.328125 C 11.816406 -11.441406 11.730469 -11.578125 11.605469 -11.738281 C 11.332031 -12.089844 10.878906 -12.40625 10.25 -12.6875 C 9.566406 -12.996094 8.722656 -13.152344 7.726562 -13.152344 C 6.765625 -13.152344 5.945312 -13.011719 5.269531 -12.726562 C 4.730469 -12.5 4.332031 -12.210938 4.074219 -11.859375 C 3.878906 -11.589844 3.777344 -11.273438 3.777344 -10.910156 C 3.777344 -10.617188 3.816406 -10.382812 3.894531 -10.203125 C 3.957031 -10.0625 4.058594 -9.933594 4.195312 -9.816406 C 4.417969 -9.625 4.730469 -9.457031 5.132812 -9.308594 C 5.65625 -9.113281 6.296875 -8.964844 7.054688 -8.867188 C 8.394531 -8.6875 9.363281 -8.492188 9.96875 -8.28125 C 10.605469 -8.054688 11.140625 -7.726562 11.566406 -7.292969 C 11.878906 -6.96875 12.125 -6.605469 12.296875 -6.199219 C 12.480469 -5.765625 12.574219 -5.3125 12.574219 -4.839844 C 12.574219 -4.371094 12.480469 -3.925781 12.289062 -3.496094 C 12.121094 -3.113281 11.886719 -2.769531 11.582031 -2.46875 C 11.195312 -2.078125 10.71875 -1.78125 10.148438 -1.574219 C 9.507812 -1.339844 8.753906 -1.222656 7.886719 -1.222656 C 6.511719 -1.222656 5.332031 -1.609375 4.351562 -2.390625 L 4.324219 -2.414062 L 4.292969 -2.433594 C 4.285156 -2.441406 4.28125 -2.445312 4.277344 -2.449219 C 4.285156 -2.441406 4.296875 -2.433594 4.3125 -2.425781 C 4.394531 -2.371094 4.488281 -2.320312 4.601562 -2.277344 C 4.835938 -2.179688 5.046875 -2.128906 5.226562 -2.128906 L 0.910156 -2.128906 C 1.242188 -2.128906 1.5625 -2.195312 1.871094 -2.324219 C 2.175781 -2.453125 2.4375 -2.628906 2.667969 -2.855469 C 2.894531 -3.082031 3.070312 -3.347656 3.195312 -3.648438 C 3.328125 -3.960938 3.390625 -4.28125 3.390625 -4.613281 L 0.410156 -4.613281 L 3.390625 -4.714844 C 3.398438 -4.472656 3.492188 -4.234375 3.667969 -4.003906 C 3.890625 -3.707031 4.304688 -3.441406 4.902344 -3.207031 C 5.664062 -2.90625 6.65625 -2.753906 7.886719 -2.753906 Z M 7.886719 -2.753906 "/></g></g></g></g><g fill="#145da0" fill-opacity="1"><g transform="translate(2.919186, 21.45814)"><g><path d="M 1.859375 0 C 1.691406 0 1.546875 -0.0546875 1.421875 -0.171875 C 1.304688 -0.296875 1.25 -0.441406 1.25 -0.609375 L 1.25 -15.296875 C 1.25 -15.460938 1.304688 -15.601562 1.421875 -15.71875 C 1.546875 -15.84375 1.691406 -15.90625 1.859375 -15.90625 L 5.453125 -15.90625 C 5.878906 -15.90625 6.203125 -15.703125 6.421875 -15.296875 L 9.71875 -9.84375 L 13.015625 -15.296875 C 13.242188 -15.703125 13.570312 -15.90625 14 -15.90625 L 17.578125 -15.90625 C 17.742188 -15.90625 17.890625 -15.84375 18.015625 -15.71875 C 18.140625 -15.601562 18.203125 -15.460938 18.203125 -15.296875 L 18.203125 -0.609375 C 18.203125 -0.441406 18.140625 -0.296875 18.015625 -0.171875 C 17.890625 -0.0546875 17.742188 0 17.578125 0 L 13.46875 0 C 13.300781 0 13.15625 -0.0546875 13.03125 -0.171875 C 12.914062 -0.296875 12.859375 -0.441406 12.859375 -0.609375 L 12.859375 -6.84375 L 11.359375 -4.390625 C 11.253906 -4.222656 11.132812 -4.082031 11 -3.96875 C 10.875 -3.863281 10.710938 -3.8125 10.515625 -3.8125 L 8.921875 -3.8125 C 8.734375 -3.8125 8.570312 -3.863281 8.4375 -3.96875 C 8.3125 -4.082031 8.195312 -4.222656 8.09375 -4.390625 L 6.59375 -6.84375 L 6.59375 -0.609375 C 6.59375 -0.441406 6.53125 -0.296875 6.40625 -0.171875 C 6.28125 -0.0546875 6.132812 0 5.96875 0 Z M 1.859375 0 "/></g></g></g><g fill="#145da0" fill-opacity="1"><g transform="translate(20.667368, 21.45814)"><g><path d="M 7.890625 0.234375 C 6.273438 0.234375 4.910156 0.015625 3.796875 -0.421875 C 2.691406 -0.867188 1.859375 -1.457031 1.296875 -2.1875 C 0.734375 -2.925781 0.4375 -3.734375 0.40625 -4.609375 C 0.40625 -4.742188 0.453125 -4.859375 0.546875 -4.953125 C 0.648438 -5.054688 0.769531 -5.109375 0.90625 -5.109375 L 5.21875 -5.109375 C 5.4375 -5.109375 5.609375 -5.082031 5.734375 -5.03125 C 5.859375 -4.976562 6.015625 -4.875 6.203125 -4.71875 C 6.640625 -4.375 7.203125 -4.203125 7.890625 -4.203125 C 8.398438 -4.203125 8.8125 -4.257812 9.125 -4.375 C 9.4375 -4.488281 9.59375 -4.644531 9.59375 -4.84375 C 9.59375 -5.113281 9.382812 -5.316406 8.96875 -5.453125 C 8.5625 -5.597656 7.789062 -5.75 6.65625 -5.90625 C 2.75 -6.414062 0.796875 -8.082031 0.796875 -10.90625 C 0.796875 -11.914062 1.085938 -12.816406 1.671875 -13.609375 C 2.253906 -14.410156 3.066406 -15.03125 4.109375 -15.46875 C 5.148438 -15.90625 6.351562 -16.125 7.71875 -16.125 C 9.144531 -16.125 10.394531 -15.878906 11.46875 -15.390625 C 12.550781 -14.910156 13.378906 -14.300781 13.953125 -13.5625 C 14.523438 -12.832031 14.828125 -12.117188 14.859375 -11.421875 C 14.859375 -11.285156 14.804688 -11.164062 14.703125 -11.0625 C 14.609375 -10.96875 14.5 -10.921875 14.375 -10.921875 L 9.84375 -10.921875 C 9.625 -10.921875 9.453125 -10.945312 9.328125 -11 C 9.210938 -11.0625 9.078125 -11.160156 8.921875 -11.296875 C 8.609375 -11.566406 8.207031 -11.703125 7.71875 -11.703125 C 7 -11.703125 6.640625 -11.488281 6.640625 -11.0625 C 6.640625 -10.832031 6.816406 -10.640625 7.171875 -10.484375 C 7.523438 -10.335938 8.1875 -10.207031 9.15625 -10.09375 C 10.664062 -9.894531 11.878906 -9.597656 12.796875 -9.203125 C 13.710938 -8.804688 14.378906 -8.28125 14.796875 -7.625 C 15.210938 -6.96875 15.421875 -6.140625 15.421875 -5.140625 C 15.421875 -4.054688 15.09375 -3.109375 14.4375 -2.296875 C 13.789062 -1.492188 12.894531 -0.867188 11.75 -0.421875 C 10.613281 0.015625 9.328125 0.234375 7.890625 0.234375 Z M 7.890625 0.234375 "/></g></g></g></g></g><g clip-path="url(#e0d3732255)"><g transform="matrix(1, 0, 0, 1, 81, 10)"><g clip-path="url(#170f1e98c7)"><g fill="#000000" fill-opacity="1"><g transform="translate(0.537066, 52.428808)"><g><path d="M 19.578125 0 L 11 -27.96875 L 10.78125 -27.96875 C 11.082031 -22.28125 11.234375 -18.484375 11.234375 -16.578125 L 11.234375 0 L 4.484375 0 L 4.484375 -35.65625 L 14.78125 -35.65625 L 23.21875 -8.390625 L 23.359375 -8.390625 L 32.3125 -35.65625 L 42.59375 -35.65625 L 42.59375 0 L 35.546875 0 L 35.546875 -16.875 C 35.546875 -17.664062 35.554688 -18.582031 35.578125 -19.625 C 35.609375 -20.664062 35.722656 -23.429688 35.921875 -27.921875 L 35.703125 -27.921875 L 26.5 0 Z M 19.578125 0 "/></g></g></g><g fill="#000000" fill-opacity="1"><g transform="translate(47.617197, 52.428808)"><g><path d="M 15.1875 -22.484375 C 13.613281 -22.484375 12.378906 -21.984375 11.484375 -20.984375 C 10.585938 -19.984375 10.078125 -18.566406 9.953125 -16.734375 L 20.390625 -16.734375 C 20.347656 -18.566406 19.863281 -19.984375 18.9375 -20.984375 C 18.019531 -21.984375 16.769531 -22.484375 15.1875 -22.484375 Z M 16.234375 0.484375 C 11.847656 0.484375 8.421875 -0.722656 5.953125 -3.140625 C 3.484375 -5.566406 2.25 -9 2.25 -13.4375 C 2.25 -18 3.390625 -21.523438 5.671875 -24.015625 C 7.953125 -26.515625 11.109375 -27.765625 15.140625 -27.765625 C 18.992188 -27.765625 21.992188 -26.664062 24.140625 -24.46875 C 26.285156 -22.28125 27.359375 -19.253906 27.359375 -15.390625 L 27.359375 -11.78125 L 9.78125 -11.78125 C 9.863281 -9.664062 10.488281 -8.015625 11.65625 -6.828125 C 12.820312 -5.640625 14.460938 -5.046875 16.578125 -5.046875 C 18.222656 -5.046875 19.773438 -5.21875 21.234375 -5.5625 C 22.703125 -5.90625 24.234375 -6.445312 25.828125 -7.1875 L 25.828125 -1.4375 C 24.523438 -0.789062 23.132812 -0.3125 21.65625 0 C 20.175781 0.320312 18.367188 0.484375 16.234375 0.484375 Z M 16.234375 0.484375 "/></g></g></g><g fill="#000000" fill-opacity="1"><g transform="translate(77.118464, 52.428808)"><g><path d="M 12.53125 0.484375 C 9.332031 0.484375 6.816406 -0.753906 4.984375 -3.234375 C 3.160156 -5.722656 2.25 -9.171875 2.25 -13.578125 C 2.25 -18.046875 3.175781 -21.523438 5.03125 -24.015625 C 6.894531 -26.515625 9.460938 -27.765625 12.734375 -27.765625 C 16.160156 -27.765625 18.773438 -26.4375 20.578125 -23.78125 L 20.828125 -23.78125 C 20.453125 -25.8125 20.265625 -27.625 20.265625 -29.21875 L 20.265625 -37.9375 L 27.71875 -37.9375 L 27.71875 0 L 22.015625 0 L 20.578125 -3.53125 L 20.265625 -3.53125 C 18.578125 -0.851562 16 0.484375 12.53125 0.484375 Z M 15.140625 -5.4375 C 17.046875 -5.4375 18.441406 -5.988281 19.328125 -7.09375 C 20.210938 -8.195312 20.695312 -10.078125 20.78125 -12.734375 L 20.78125 -13.53125 C 20.78125 -16.457031 20.328125 -18.550781 19.421875 -19.8125 C 18.515625 -21.082031 17.046875 -21.71875 15.015625 -21.71875 C 13.359375 -21.71875 12.070312 -21.015625 11.15625 -19.609375 C 10.238281 -18.203125 9.78125 -16.160156 9.78125 -13.484375 C 9.78125 -10.796875 10.242188 -8.78125 11.171875 -7.4375 C 12.097656 -6.101562 13.421875 -5.4375 15.140625 -5.4375 Z M 15.140625 -5.4375 "/></g></g></g><g fill="#000000" fill-opacity="1"><g transform="translate(108.716515, 52.428808)"><g><path d="M 22.921875 -8.09375 C 22.921875 -5.300781 21.945312 -3.171875 20 -1.703125 C 18.0625 -0.242188 15.160156 0.484375 11.296875 0.484375 C 9.304688 0.484375 7.613281 0.347656 6.21875 0.078125 C 4.820312 -0.179688 3.515625 -0.570312 2.296875 -1.09375 L 2.296875 -7.234375 C 3.671875 -6.585938 5.222656 -6.046875 6.953125 -5.609375 C 8.691406 -5.171875 10.21875 -4.953125 11.53125 -4.953125 C 14.226562 -4.953125 15.578125 -5.734375 15.578125 -7.296875 C 15.578125 -7.878906 15.398438 -8.351562 15.046875 -8.71875 C 14.691406 -9.082031 14.070312 -9.492188 13.1875 -9.953125 C 12.3125 -10.421875 11.144531 -10.960938 9.6875 -11.578125 C 7.582031 -12.460938 6.035156 -13.273438 5.046875 -14.015625 C 4.066406 -14.765625 3.351562 -15.625 2.90625 -16.59375 C 2.46875 -17.5625 2.25 -18.753906 2.25 -20.171875 C 2.25 -22.585938 3.1875 -24.457031 5.0625 -25.78125 C 6.9375 -27.101562 9.597656 -27.765625 13.046875 -27.765625 C 16.328125 -27.765625 19.519531 -27.050781 22.625 -25.625 L 20.390625 -20.265625 C 19.023438 -20.847656 17.75 -21.328125 16.5625 -21.703125 C 15.375 -22.078125 14.160156 -22.265625 12.921875 -22.265625 C 10.722656 -22.265625 9.625 -21.671875 9.625 -20.484375 C 9.625 -19.816406 9.976562 -19.238281 10.6875 -18.75 C 11.394531 -18.257812 12.945312 -17.535156 15.34375 -16.578125 C 17.46875 -15.710938 19.023438 -14.90625 20.015625 -14.15625 C 21.003906 -13.414062 21.734375 -12.554688 22.203125 -11.578125 C 22.679688 -10.609375 22.921875 -9.445312 22.921875 -8.09375 Z M 22.921875 -8.09375 "/></g></g></g><g fill="#000000" fill-opacity="1"><g transform="translate(133.536589, 52.428808)"><g><path d="M 9.828125 -13.671875 C 9.828125 -10.972656 10.269531 -8.929688 11.15625 -7.546875 C 12.039062 -6.171875 13.484375 -5.484375 15.484375 -5.484375 C 17.460938 -5.484375 18.882812 -6.171875 19.75 -7.546875 C 20.625 -8.921875 21.0625 -10.960938 21.0625 -13.671875 C 21.0625 -16.378906 20.625 -18.40625 19.75 -19.75 C 18.875 -21.101562 17.4375 -21.78125 15.4375 -21.78125 C 13.445312 -21.78125 12.015625 -21.109375 11.140625 -19.765625 C 10.265625 -18.421875 9.828125 -16.390625 9.828125 -13.671875 Z M 28.671875 -13.671875 C 28.671875 -9.234375 27.5 -5.765625 25.15625 -3.265625 C 22.820312 -0.765625 19.566406 0.484375 15.390625 0.484375 C 12.765625 0.484375 10.453125 -0.0859375 8.453125 -1.234375 C 6.460938 -2.378906 4.929688 -4.023438 3.859375 -6.171875 C 2.785156 -8.316406 2.25 -10.816406 2.25 -13.671875 C 2.25 -18.128906 3.410156 -21.59375 5.734375 -24.0625 C 8.054688 -26.53125 11.320312 -27.765625 15.53125 -27.765625 C 18.144531 -27.765625 20.453125 -27.195312 22.453125 -26.0625 C 24.453125 -24.925781 25.988281 -23.289062 27.0625 -21.15625 C 28.132812 -19.03125 28.671875 -16.535156 28.671875 -13.671875 Z M 28.671875 -13.671875 "/></g></g></g><g fill="#000000" fill-opacity="1"><g transform="translate(164.451966, 52.428808)"><g><path d="M 18.96875 -21.671875 L 12.53125 -21.671875 L 12.53125 0 L 5.09375 0 L 5.09375 -21.671875 L 1 -21.671875 L 1 -25.265625 L 5.09375 -27.265625 L 5.09375 -29.265625 C 5.09375 -32.367188 5.859375 -34.632812 7.390625 -36.0625 C 8.921875 -37.488281 11.367188 -38.203125 14.734375 -38.203125 C 17.296875 -38.203125 19.578125 -37.820312 21.578125 -37.0625 L 19.671875 -31.59375 C 18.179688 -32.070312 16.800781 -32.3125 15.53125 -32.3125 C 14.476562 -32.3125 13.710938 -32 13.234375 -31.375 C 12.765625 -30.75 12.53125 -29.945312 12.53125 -28.96875 L 12.53125 -27.265625 L 18.96875 -27.265625 Z M 18.96875 -21.671875 "/></g></g></g><g fill="#000000" fill-opacity="1"><g transform="translate(183.786278, 52.428808)"><g><path d="M 15.390625 -5.4375 C 16.691406 -5.4375 18.25 -5.722656 20.0625 -6.296875 L 20.0625 -0.75 C 18.207031 0.0703125 15.929688 0.484375 13.234375 0.484375 C 10.265625 0.484375 8.097656 -0.265625 6.734375 -1.765625 C 5.378906 -3.265625 4.703125 -5.519531 4.703125 -8.53125 L 4.703125 -21.671875 L 1.140625 -21.671875 L 1.140625 -24.828125 L 5.25 -27.3125 L 7.390625 -33.0625 L 12.140625 -33.0625 L 12.140625 -27.265625 L 19.78125 -27.265625 L 19.78125 -21.671875 L 12.140625 -21.671875 L 12.140625 -8.53125 C 12.140625 -7.476562 12.4375 -6.695312 13.03125 -6.1875 C 13.625 -5.6875 14.410156 -5.4375 15.390625 -5.4375 Z M 15.390625 -5.4375 "/></g></g></g></g></g></g></g></g></svg>