<svg xmlns="http://www.w3.org/2000/svg" xmlns:xlink="http://www.w3.org/1999/xlink" width="500" zoomAndPan="magnify" viewBox="0 0 375 374.999991" height="500" preserveAspectRatio="xMidYMid meet" version="1.0"><defs><g/><clipPath id="f47f41f231"><path d="M 8.203125 8.203125 L 367.382812 8.203125 L 367.382812 366.796875 L 8.203125 366.796875 Z M 8.203125 8.203125 " clip-rule="nonzero"/></clipPath><clipPath id="bee0e437e0"><path d="M 0.203125 0.203125 L 359 0.203125 L 359 358.796875 L 0.203125 358.796875 Z M 0.203125 0.203125 " clip-rule="nonzero"/></clipPath><clipPath id="c63dd8eb7f"><rect x="0" width="360" y="0" height="359"/></clipPath><clipPath id="5ff964d5ac"><path d="M 0.121094 4.5 L 287 4.5 L 287 283 L 0.121094 283 Z M 0.121094 4.5 " clip-rule="nonzero"/></clipPath><clipPath id="10e883d4b3"><path d="M 209.234375 137.28125 L 264 137.28125 L 264 191 L 209.234375 191 Z M 209.234375 137.28125 " clip-rule="nonzero"/></clipPath><clipPath id="f25d2295a5"><path d="M 77 201 L 248 201 L 248 317.160156 L 77 317.160156 Z M 77 201 " clip-rule="nonzero"/></clipPath><clipPath id="25c3a7124d"><rect x="0" width="171" y="0" height="117"/></clipPath><clipPath id="f4fbdde022"><rect x="0" width="289" y="0" height="318"/></clipPath></defs><g clip-path="url(#f47f41f231)"><g transform="matrix(1, 0, 0, 1, 8, 8)"><g clip-path="url(#c63dd8eb7f)"><g clip-path="url(#bee0e437e0)"><path fill="#ebf4f1" d="M 0.203125 0.203125 L 358.796875 0.203125 L 358.796875 358.796875 L 0.203125 358.796875 Z M 0.203125 0.203125 " fill-opacity="1" fill-rule="nonzero"/></g></g></g></g><g transform="matrix(1, 0, 0, 1, 51, 33)"><g clip-path="url(#f4fbdde022)"><g clip-path="url(#5ff964d5ac)"><path fill="#145da0" d="M 245.550781 207.28125 C 244.660156 249.066406 210.222656 282.765625 168.039062 282.765625 C 125.261719 282.765625 90.480469 248.132812 90.480469 205.601562 C 90.480469 196.027344 90.28125 190.351562 90.527344 189.859375 C 39.710938 186.066406 0.191406 143.488281 0.191406 92.46875 L 0.191406 55.117188 C 0.191406 42.878906 10.15625 32.917969 22.390625 32.917969 L 30.285156 32.917969 L 30.285156 20.976562 C 30.285156 11.851562 37.636719 4.5 46.765625 4.5 C 51.304688 4.5 55.402344 6.324219 58.410156 9.332031 C 61.371094 12.296875 63.195312 16.441406 63.195312 20.976562 L 63.195312 59.660156 C 63.195312 68.738281 55.847656 76.136719 46.765625 76.136719 C 37.640625 76.136719 30.285156 68.738281 30.285156 59.660156 L 30.285156 47.71875 L 22.390625 47.71875 C 18.292969 47.71875 14.992188 51.027344 14.992188 55.117188 L 14.992188 92.46875 C 14.992188 107.761719 19.136719 122.074219 26.4375 134.355469 C 35.417969 148.023438 37.488281 149.160156 37.488281 149.160156 C 53.871094 166.625 75.875 175.359375 97.878906 175.359375 C 119.882812 175.359375 141.886719 166.625 158.265625 149.160156 C 158.265625 149.160156 160.339844 148.023438 169.316406 134.355469 C 176.621094 122.074219 180.765625 107.761719 180.765625 92.46875 L 180.765625 55.117188 C 180.765625 51.019531 177.457031 47.71875 173.367188 47.71875 L 165.46875 47.71875 L 165.46875 59.660156 C 165.46875 68.738281 158.117188 76.136719 148.988281 76.136719 C 139.910156 76.136719 132.558594 68.738281 132.558594 59.660156 L 132.558594 20.976562 C 132.558594 16.441406 134.382812 12.296875 137.34375 9.332031 C 140.355469 6.324219 144.453125 4.5 148.988281 4.5 C 158.113281 4.5 165.46875 11.851562 165.46875 20.976562 L 165.46875 32.917969 L 173.367188 32.917969 C 185.601562 32.917969 195.566406 42.886719 195.566406 55.117188 L 195.566406 92.46875 C 195.566406 143.484375 156.046875 186.066406 105.230469 189.863281 C 105.476562 190.359375 105.277344 196.621094 105.277344 205.605469 C 105.277344 239.992188 133.402344 267.96875 168.035156 267.96875 C 202.078125 267.96875 229.90625 240.882812 230.746094 207.234375 C 154.765625 168.601562 201.78125 107.523438 238.195312 132.140625 C 274.558594 107.371094 321.675781 168.648438 245.546875 207.285156 Z M 245.550781 207.28125 " fill-opacity="1" fill-rule="nonzero"/></g><path fill="#11a1de" d="M 135.582031 100.605469 L 135.582031 127.429688 C 135.582031 129.601562 133.820312 131.363281 131.648438 131.363281 L 115.207031 131.363281 L 115.207031 147.804688 C 115.207031 149.980469 113.441406 151.742188 111.269531 151.742188 L 84.445312 151.742188 C 82.273438 151.742188 80.511719 149.980469 80.511719 147.804688 L 80.511719 131.363281 L 64.070312 131.363281 C 61.898438 131.363281 60.132812 129.601562 60.132812 127.429688 L 60.132812 100.605469 C 60.132812 98.433594 61.898438 96.667969 64.070312 96.667969 L 80.511719 96.667969 L 80.511719 80.226562 C 80.511719 78.054688 82.273438 76.292969 84.445312 76.292969 L 111.269531 76.292969 C 113.441406 76.292969 115.207031 78.054688 115.207031 80.226562 L 115.207031 96.667969 L 131.648438 96.667969 C 133.820312 96.667969 135.582031 98.433594 135.582031 100.605469 Z M 135.582031 100.605469 " fill-opacity="1" fill-rule="nonzero"/><g clip-path="url(#10e883d4b3)"><path fill="#ffffff" d="M 263.984375 152.222656 C 258.976562 143.304688 249.429688 137.28125 238.476562 137.28125 C 222.328125 137.28125 209.234375 150.375 209.234375 166.523438 C 209.234375 170.125 209.886719 173.570312 211.074219 176.757812 C 210.636719 175.042969 210.402344 173.246094 210.402344 171.394531 C 210.402344 167.367188 211.511719 163.597656 213.4375 160.375 C 212.714844 159.53125 212.28125 158.429688 212.292969 157.230469 C 212.316406 154.6875 214.363281 152.582031 216.90625 152.496094 C 219.660156 152.40625 221.917969 154.648438 221.847656 157.398438 C 221.785156 159.910156 219.742188 161.96875 217.230469 162.050781 C 216.664062 162.070312 216.117188 161.988281 215.609375 161.824219 C 213.957031 164.632812 213.007812 167.902344 213.007812 171.394531 C 213.007812 181.835938 221.511719 190.316406 231.953125 190.296875 C 235.261719 190.289062 238.371094 189.429688 241.078125 187.925781 C 243.875 186.371094 244.292969 182.511719 241.878906 180.402344 C 239.46875 178.292969 236.566406 175.769531 233.066406 172.140625 C 221.816406 160.464844 229.769531 150.824219 237.824219 151.132812 C 242.164062 151.296875 245.703125 153.992188 247.605469 155.800781 C 249.511719 153.992188 253.046875 151.296875 257.386719 151.132812 C 259 151.070312 261.808594 151.234375 263.984375 152.222656 " fill-opacity="1" fill-rule="nonzero"/></g><path fill="#ffffff" d="M 251.40625 178.050781 L 251.40625 172.019531 L 257.4375 172.019531 L 257.4375 164.460938 L 251.40625 164.460938 L 251.40625 158.429688 L 243.847656 158.429688 L 243.847656 164.460938 L 237.816406 164.460938 L 237.816406 172.019531 L 243.847656 172.019531 L 243.847656 178.050781 L 251.40625 178.050781 " fill-opacity="1" fill-rule="nonzero"/><path fill="#ffffff" d="M 267.503906 162.957031 C 266.949219 165.738281 265.304688 168.859375 262.144531 172.140625 C 257.875 176.570312 254.492188 179.355469 251.804688 181.746094 C 250.519531 182.890625 249.324219 184.128906 248.203125 185.433594 C 244.257812 190.007812 238.421875 192.902344 231.910156 192.902344 C 227.828125 192.902344 224.015625 191.765625 220.765625 189.792969 C 225.679688 193.539062 231.816406 195.769531 238.476562 195.769531 C 254.628906 195.769531 267.71875 182.675781 267.71875 166.523438 C 267.71875 165.316406 267.644531 164.125 267.503906 162.957031 " fill-opacity="1" fill-rule="nonzero"/><path fill="#ffffff" d="M 219.734375 157.273438 C 219.734375 155.800781 218.542969 154.609375 217.070312 154.609375 C 215.597656 154.609375 214.40625 155.800781 214.40625 157.273438 C 214.40625 158.746094 215.597656 159.9375 217.070312 159.9375 C 218.542969 159.9375 219.734375 158.746094 219.734375 157.273438 " fill-opacity="1" fill-rule="nonzero"/><g clip-path="url(#f25d2295a5)"><g transform="matrix(1, 0, 0, 1, 77, 201)"><g clip-path="url(#25c3a7124d)"><g fill="#ffffff" fill-opacity="1"><g transform="translate(11.426503, 90.204283)"><g><path d="M 8.050781 12.882812 C 5.953125 12.882812 3.953125 12.480469 2.042969 11.679688 C 0.179688 10.894531 -1.476562 9.777344 -2.925781 8.324219 C -4.378906 6.875 -5.496094 5.21875 -6.28125 3.355469 C -7.082031 1.445312 -7.484375 -0.554688 -7.484375 -2.648438 L -7.484375 -66.0625 C -7.484375 -68.15625 -7.082031 -70.15625 -6.28125 -72.066406 C -5.496094 -73.929688 -4.378906 -75.585938 -2.925781 -77.039062 C -1.476562 -78.488281 0.179688 -79.605469 2.042969 -80.390625 C 3.953125 -81.195312 5.953125 -81.597656 8.050781 -81.597656 L 23.558594 -81.597656 C 26.949219 -81.597656 30.042969 -80.71875 32.839844 -78.960938 C 35.410156 -77.34375 37.480469 -75.132812 39.042969 -72.320312 L 27.777344 -66.0625 L 38.808594 -72.722656 L 53.039062 -49.164062 L 42.011719 -42.503906 L 30.984375 -49.164062 L 45.21875 -72.722656 L 56.246094 -66.0625 L 44.984375 -72.320312 C 46.546875 -75.132812 48.613281 -77.34375 51.1875 -78.960938 C 53.984375 -80.71875 57.078125 -81.597656 60.464844 -81.597656 L 75.976562 -81.597656 C 78.070312 -81.597656 80.074219 -81.195312 81.980469 -80.390625 C 83.84375 -79.605469 85.5 -78.488281 86.953125 -77.039062 C 88.402344 -75.585938 89.519531 -73.929688 90.304688 -72.066406 C 91.109375 -70.15625 91.511719 -68.15625 91.511719 -66.0625 L 91.511719 -2.648438 C 91.511719 -0.554688 91.109375 1.445312 90.304688 3.355469 C 89.519531 5.21875 88.402344 6.875 86.953125 8.324219 C 85.5 9.777344 83.84375 10.894531 81.980469 11.679688 C 80.074219 12.480469 78.070312 12.882812 75.976562 12.882812 L 58.207031 12.882812 C 56.113281 12.882812 54.113281 12.480469 52.203125 11.679688 C 50.339844 10.894531 48.683594 9.777344 47.234375 8.324219 C 45.78125 6.875 44.664062 5.21875 43.878906 3.355469 C 43.078125 1.445312 42.675781 -0.554688 42.675781 -2.648438 L 42.675781 -29.546875 L 55.558594 -29.546875 L 66.550781 -22.828125 L 60.074219 -12.226562 C 58.800781 -10.222656 57.359375 -8.558594 55.75 -7.230469 C 52.8125 -4.816406 49.378906 -3.605469 45.449219 -3.605469 L 38.578125 -3.605469 C 34.644531 -3.605469 31.210938 -4.816406 28.277344 -7.230469 C 26.667969 -8.558594 25.265625 -10.15625 24.074219 -12.027344 L 17.472656 -22.828125 L 28.464844 -29.546875 L 41.351562 -29.546875 L 41.351562 -2.648438 C 41.351562 -0.554688 40.949219 1.445312 40.144531 3.355469 C 39.359375 5.21875 38.242188 6.875 36.792969 8.324219 C 35.339844 9.777344 33.683594 10.894531 31.820312 11.679688 C 29.914062 12.480469 27.910156 12.882812 25.816406 12.882812 Z M 8.050781 -12.882812 L 25.816406 -12.882812 C 24.441406 -12.882812 23.109375 -12.613281 21.824219 -12.070312 C 20.582031 -11.550781 19.5 -10.824219 18.570312 -9.894531 C 17.640625 -8.96875 16.917969 -7.882812 16.394531 -6.644531 C 15.851562 -5.355469 15.582031 -4.023438 15.582031 -2.648438 L 15.582031 -75.339844 L 45.816406 -25.863281 C 45.539062 -26.292969 45.15625 -26.714844 44.65625 -27.125 C 43.679688 -27.929688 42.59375 -28.523438 41.398438 -28.914062 C 40.457031 -29.222656 39.515625 -29.375 38.578125 -29.375 L 45.449219 -29.375 C 44.511719 -29.375 43.570312 -29.222656 42.625 -28.914062 C 41.429688 -28.523438 40.34375 -27.929688 39.367188 -27.125 C 38.871094 -26.714844 38.441406 -26.226562 38.085938 -25.664062 L 68.441406 -75.339844 L 68.441406 -2.648438 C 68.441406 -4.023438 68.171875 -5.355469 67.628906 -6.644531 C 67.105469 -7.882812 66.382812 -8.96875 65.453125 -9.894531 C 64.527344 -10.824219 63.441406 -11.550781 62.203125 -12.070312 C 60.914062 -12.613281 59.582031 -12.882812 58.207031 -12.882812 L 75.976562 -12.882812 C 74.601562 -12.882812 73.269531 -12.613281 71.980469 -12.070312 C 70.742188 -11.550781 69.660156 -10.824219 68.730469 -9.894531 C 67.800781 -8.96875 67.078125 -7.882812 66.554688 -6.644531 C 66.011719 -5.355469 65.742188 -4.023438 65.742188 -2.648438 L 65.742188 -66.0625 C 65.742188 -64.6875 66.011719 -63.355469 66.554688 -62.066406 C 67.078125 -60.828125 67.800781 -59.742188 68.730469 -58.816406 C 69.660156 -57.886719 70.742188 -57.164062 71.980469 -56.640625 C 73.269531 -56.097656 74.601562 -55.828125 75.976562 -55.828125 L 60.464844 -55.828125 C 62.023438 -55.828125 63.496094 -56.265625 64.886719 -57.136719 C 66.054688 -57.871094 66.925781 -58.757812 67.507812 -59.804688 L 67.394531 -59.597656 L 42.011719 -17.585938 L 16.628906 -59.597656 L 16.515625 -59.804688 C 17.097656 -58.757812 17.972656 -57.871094 19.136719 -57.136719 C 20.527344 -56.265625 22 -55.828125 23.558594 -55.828125 L 8.050781 -55.828125 C 9.421875 -55.828125 10.753906 -56.097656 12.042969 -56.640625 C 13.28125 -57.164062 14.367188 -57.886719 15.292969 -58.816406 C 16.222656 -59.742188 16.949219 -60.828125 17.46875 -62.066406 C 18.011719 -63.355469 18.28125 -64.6875 18.28125 -66.0625 L 18.28125 -2.648438 C 18.28125 -4.023438 18.011719 -5.355469 17.46875 -6.644531 C 16.949219 -7.882812 16.222656 -8.96875 15.292969 -9.894531 C 14.367188 -10.824219 13.28125 -11.550781 12.042969 -12.070312 C 10.753906 -12.613281 9.421875 -12.882812 8.050781 -12.882812 Z M 8.050781 -12.882812 "/></g></g></g><g fill="#ffffff" fill-opacity="1"><g transform="translate(88.085894, 90.204283)"><g><path d="M 34.0625 13.867188 C 25.492188 13.867188 18.042969 12.617188 11.714844 10.121094 C 4.675781 7.34375 -0.777344 3.417969 -4.648438 -1.65625 C -8.730469 -7.007812 -10.882812 -12.949219 -11.109375 -19.484375 L -11.117188 -19.703125 L -11.117188 -19.925781 C -11.117188 -21.949219 -10.730469 -23.882812 -9.957031 -25.730469 C -9.195312 -27.542969 -8.113281 -29.152344 -6.707031 -30.558594 C -5.296875 -31.964844 -3.691406 -33.046875 -1.878906 -33.808594 C -0.03125 -34.582031 1.902344 -34.96875 3.925781 -34.96875 L 22.578125 -34.96875 C 25.191406 -34.96875 27.5625 -34.53125 29.691406 -33.65625 C 31.464844 -32.925781 33.25 -31.8125 35.046875 -30.316406 L 26.796875 -20.417969 L 34.804688 -30.511719 C 34.496094 -30.757812 34.183594 -30.929688 33.859375 -31.027344 C 33.800781 -31.046875 33.761719 -31.058594 33.742188 -31.058594 C 33.816406 -31.050781 33.925781 -31.042969 34.0625 -31.042969 C 34.585938 -31.042969 35.003906 -31.066406 35.3125 -31.109375 C 35.34375 -31.113281 35.371094 -31.117188 35.390625 -31.121094 C 35.390625 -31.121094 35.382812 -31.117188 35.367188 -31.113281 C 35.257812 -31.089844 35.132812 -31.050781 34.984375 -30.996094 C 33.875 -30.589844 32.816406 -29.882812 31.808594 -28.878906 C 30.839844 -27.90625 30.074219 -26.78125 29.507812 -25.5 C 28.863281 -24.035156 28.539062 -22.503906 28.539062 -20.90625 C 28.539062 -19.453125 28.828125 -18.050781 29.402344 -16.699219 C 29.925781 -15.460938 30.648438 -14.375 31.566406 -13.441406 C 32.523438 -12.464844 33.5 -11.804688 34.496094 -11.453125 C 33.566406 -11.78125 31.085938 -12.214844 27.058594 -12.75 C 16.109375 -14.191406 7.5625 -17.539062 1.40625 -22.785156 C -2.210938 -25.871094 -4.945312 -29.535156 -6.792969 -33.773438 C -8.5625 -37.835938 -9.449219 -42.285156 -9.449219 -47.117188 C -9.449219 -54.3125 -7.359375 -60.761719 -3.175781 -66.464844 C 0.75 -71.820312 6.066406 -75.90625 12.773438 -78.726562 C 18.886719 -81.292969 25.753906 -82.578125 33.375 -82.578125 C 41.371094 -82.578125 48.535156 -81.152344 54.863281 -78.296875 C 61.4375 -75.335938 66.621094 -71.433594 70.414062 -66.597656 C 74.597656 -61.253906 76.816406 -55.699219 77.070312 -49.933594 L 77.082031 -49.65625 L 77.082031 -49.375 C 77.082031 -47.351562 76.695312 -45.417969 75.917969 -43.570312 C 75.160156 -41.757812 74.074219 -40.148438 72.667969 -38.742188 C 71.339844 -37.410156 69.832031 -36.371094 68.152344 -35.617188 C 66.242188 -34.757812 64.234375 -34.332031 62.136719 -34.332031 L 42.503906 -34.332031 C 39.789062 -34.332031 37.347656 -34.804688 35.179688 -35.753906 C 33.382812 -36.539062 31.644531 -37.691406 29.957031 -39.207031 L 38.578125 -48.785156 L 30.191406 -39.003906 C 30.761719 -38.511719 31.398438 -38.148438 32.101562 -37.910156 C 32.578125 -37.75 33.003906 -37.667969 33.375 -37.667969 C 33.34375 -37.667969 33.320312 -37.667969 33.304688 -37.667969 C 33.308594 -37.667969 33.324219 -37.667969 33.339844 -37.667969 C 33.464844 -37.679688 33.605469 -37.699219 33.773438 -37.734375 C 34.613281 -37.898438 35.46875 -38.230469 36.332031 -38.734375 C 37.929688 -39.667969 39.199219 -40.960938 40.144531 -42.613281 C 41.078125 -44.25 41.546875 -45.980469 41.546875 -47.804688 C 41.546875 -49.316406 41.25 -50.769531 40.65625 -52.160156 C 40.152344 -53.335938 39.476562 -54.375 38.628906 -55.277344 C 37.777344 -56.183594 36.90625 -56.828125 36.015625 -57.207031 C 35.917969 -57.246094 35.835938 -57.277344 35.769531 -57.300781 C 35.785156 -57.296875 35.820312 -57.285156 35.875 -57.269531 C 36.125 -57.199219 36.457031 -57.121094 36.867188 -57.039062 C 37.96875 -56.8125 39.398438 -56.585938 41.15625 -56.367188 C 48.929688 -55.359375 55.34375 -53.765625 60.398438 -51.59375 C 66.804688 -48.839844 71.621094 -44.914062 74.839844 -39.816406 C 77.96875 -34.867188 79.535156 -28.992188 79.535156 -22.183594 C 79.535156 -14.515625 77.179688 -7.75 72.472656 -1.890625 C 68.207031 3.414062 62.523438 7.433594 55.417969 10.164062 C 48.988281 12.632812 41.871094 13.867188 34.0625 13.867188 Z M 34.0625 -11.902344 C 38.683594 -11.902344 42.722656 -12.566406 46.179688 -13.894531 C 48.957031 -14.960938 51.023438 -16.339844 52.386719 -18.035156 C 53.304688 -19.179688 53.765625 -20.5625 53.765625 -22.183594 C 53.765625 -24.015625 53.53125 -25.304688 53.0625 -26.046875 C 52.683594 -26.644531 51.738281 -27.265625 50.226562 -27.917969 C 47.367188 -29.148438 43.277344 -30.105469 37.960938 -30.796875 C 32.578125 -31.472656 28.566406 -32.371094 25.925781 -33.496094 C 23.496094 -34.527344 21.472656 -35.90625 19.851562 -37.628906 C 18.617188 -38.941406 17.652344 -40.410156 16.957031 -42.035156 C 16.171875 -43.878906 15.777344 -45.800781 15.777344 -47.804688 C 15.777344 -50.542969 16.441406 -53.074219 17.769531 -55.398438 C 19.109375 -57.742188 20.96875 -59.605469 23.347656 -60.996094 C 26.140625 -62.621094 29.480469 -63.4375 33.375 -63.4375 C 35.839844 -63.4375 38.179688 -63.0625 40.390625 -62.308594 C 42.824219 -61.484375 45.015625 -60.234375 46.960938 -58.566406 L 47.082031 -58.464844 L 47.195312 -58.363281 C 46.820312 -58.703125 46.257812 -59.035156 45.507812 -59.363281 C 44.386719 -59.855469 43.382812 -60.097656 42.503906 -60.097656 L 62.136719 -60.097656 C 60.558594 -60.097656 59.050781 -59.777344 57.613281 -59.132812 C 56.40625 -58.589844 55.351562 -57.867188 54.449219 -56.964844 C 53.464844 -55.980469 52.703125 -54.839844 52.15625 -53.535156 C 51.59375 -52.195312 51.3125 -50.808594 51.3125 -49.375 L 64.195312 -49.375 L 51.324219 -48.816406 C 51.328125 -48.757812 51.332031 -48.714844 51.335938 -48.6875 C 51.324219 -48.746094 51.296875 -48.824219 51.25 -48.929688 C 51.042969 -49.425781 50.667969 -50.015625 50.128906 -50.703125 C 48.945312 -52.214844 46.996094 -53.582031 44.277344 -54.804688 C 41.3125 -56.140625 37.679688 -56.808594 33.375 -56.808594 C 29.214844 -56.808594 25.679688 -56.195312 22.757812 -54.96875 C 20.4375 -53.992188 18.71875 -52.746094 17.605469 -51.226562 C 16.75 -50.058594 16.320312 -48.6875 16.320312 -47.117188 C 16.320312 -45.863281 16.488281 -44.847656 16.828125 -44.066406 C 17.09375 -43.464844 17.523438 -42.90625 18.125 -42.394531 C 19.082031 -41.578125 20.429688 -40.847656 22.175781 -40.199219 C 24.429688 -39.359375 27.191406 -38.722656 30.464844 -38.292969 C 36.25 -37.519531 40.445312 -36.675781 43.050781 -35.761719 C 45.8125 -34.789062 48.117188 -33.367188 49.953125 -31.492188 C 51.316406 -30.109375 52.367188 -28.535156 53.113281 -26.78125 C 53.910156 -24.910156 54.308594 -22.953125 54.308594 -20.90625 C 54.308594 -18.886719 53.902344 -16.953125 53.085938 -15.105469 C 52.355469 -13.445312 51.335938 -11.960938 50.03125 -10.65625 C 48.355469 -8.980469 46.289062 -7.691406 43.839844 -6.796875 C 41.066406 -5.78125 37.808594 -5.273438 34.0625 -5.273438 C 28.125 -5.273438 23.035156 -6.957031 18.792969 -10.324219 L 18.667969 -10.417969 L 18.550781 -10.519531 C 18.515625 -10.546875 18.492188 -10.566406 18.480469 -10.574219 C 18.515625 -10.550781 18.5625 -10.515625 18.621094 -10.480469 C 18.972656 -10.246094 19.394531 -10.027344 19.878906 -9.828125 C 20.894531 -9.410156 21.792969 -9.203125 22.578125 -9.203125 L 3.925781 -9.203125 C 5.359375 -9.203125 6.746094 -9.484375 8.085938 -10.042969 C 9.390625 -10.589844 10.535156 -11.355469 11.515625 -12.335938 C 12.496094 -13.320312 13.261719 -14.460938 13.808594 -15.765625 C 14.371094 -17.105469 14.652344 -18.492188 14.652344 -19.925781 L 1.765625 -19.925781 L 14.644531 -20.371094 C 14.679688 -19.3125 15.078125 -18.285156 15.839844 -17.289062 C 16.808594 -16.015625 18.585938 -14.871094 21.171875 -13.851562 C 24.460938 -12.550781 28.757812 -11.902344 34.0625 -11.902344 Z M 34.0625 -11.902344 "/></g></g></g><g fill="#145da0" fill-opacity="1"><g transform="translate(11.426503, 90.204283)"><g><path d="M 8.046875 0 C 7.328125 0 6.707031 -0.257812 6.1875 -0.78125 C 5.664062 -1.3125 5.40625 -1.9375 5.40625 -2.65625 L 5.40625 -66.0625 C 5.40625 -66.78125 5.664062 -67.398438 6.1875 -67.921875 C 6.707031 -68.441406 7.328125 -68.703125 8.046875 -68.703125 L 23.5625 -68.703125 C 25.394531 -68.703125 26.800781 -67.820312 27.78125 -66.0625 L 42.015625 -42.5 L 56.25 -66.0625 C 57.226562 -67.820312 58.632812 -68.703125 60.46875 -68.703125 L 75.96875 -68.703125 C 76.6875 -68.703125 77.304688 -68.441406 77.828125 -67.921875 C 78.359375 -67.398438 78.625 -66.78125 78.625 -66.0625 L 78.625 -2.65625 C 78.625 -1.9375 78.359375 -1.3125 77.828125 -0.78125 C 77.304688 -0.257812 76.6875 0 75.96875 0 L 58.203125 0 C 57.484375 0 56.863281 -0.257812 56.34375 -0.78125 C 55.820312 -1.3125 55.5625 -1.9375 55.5625 -2.65625 L 55.5625 -29.546875 L 49.078125 -18.9375 C 48.617188 -18.21875 48.109375 -17.628906 47.546875 -17.171875 C 46.992188 -16.710938 46.296875 -16.484375 45.453125 -16.484375 L 38.578125 -16.484375 C 37.722656 -16.484375 37.015625 -16.710938 36.453125 -17.171875 C 35.898438 -17.628906 35.394531 -18.21875 34.9375 -18.9375 L 28.46875 -29.546875 L 28.46875 -2.65625 C 28.46875 -1.9375 28.203125 -1.3125 27.671875 -0.78125 C 27.148438 -0.257812 26.53125 0 25.8125 0 Z M 8.046875 0 "/></g></g></g><g fill="#145da0" fill-opacity="1"><g transform="translate(88.085894, 90.204283)"><g><path d="M 34.0625 0.984375 C 27.125 0.984375 21.25 0.0351562 16.4375 -1.859375 C 11.632812 -3.765625 8.019531 -6.300781 5.59375 -9.46875 C 3.175781 -12.644531 1.898438 -16.128906 1.765625 -19.921875 C 1.765625 -20.515625 1.976562 -21.019531 2.40625 -21.4375 C 2.832031 -21.863281 3.335938 -22.078125 3.921875 -22.078125 L 22.578125 -22.078125 C 23.492188 -22.078125 24.226562 -21.960938 24.78125 -21.734375 C 25.34375 -21.503906 26.015625 -21.066406 26.796875 -20.421875 C 28.691406 -18.910156 31.113281 -18.15625 34.0625 -18.15625 C 36.28125 -18.15625 38.0625 -18.398438 39.40625 -18.890625 C 40.75 -19.378906 41.421875 -20.050781 41.421875 -20.90625 C 41.421875 -22.082031 40.535156 -22.976562 38.765625 -23.59375 C 37.003906 -24.21875 33.671875 -24.859375 28.765625 -25.515625 C 11.878906 -27.742188 3.4375 -34.941406 3.4375 -47.109375 C 3.4375 -51.492188 4.695312 -55.40625 7.21875 -58.84375 C 9.738281 -62.28125 13.253906 -64.945312 17.765625 -66.84375 C 22.273438 -68.738281 27.476562 -69.6875 33.375 -69.6875 C 39.519531 -69.6875 44.914062 -68.640625 49.5625 -66.546875 C 54.207031 -64.453125 57.773438 -61.816406 60.265625 -58.640625 C 62.753906 -55.472656 64.0625 -52.382812 64.1875 -49.375 C 64.1875 -48.78125 63.972656 -48.269531 63.546875 -47.84375 C 63.128906 -47.425781 62.660156 -47.21875 62.140625 -47.21875 L 42.5 -47.21875 C 41.582031 -47.21875 40.863281 -47.332031 40.34375 -47.5625 C 39.820312 -47.789062 39.234375 -48.195312 38.578125 -48.78125 C 37.203125 -49.957031 35.46875 -50.546875 33.375 -50.546875 C 30.226562 -50.546875 28.65625 -49.628906 28.65625 -47.796875 C 28.65625 -46.816406 29.425781 -46 30.96875 -45.34375 C 32.507812 -44.6875 35.375 -44.097656 39.5625 -43.578125 C 46.101562 -42.734375 51.351562 -41.457031 55.3125 -39.75 C 59.269531 -38.050781 62.144531 -35.773438 63.9375 -32.921875 C 65.738281 -30.078125 66.640625 -26.5 66.640625 -22.1875 C 66.640625 -17.539062 65.234375 -13.46875 62.421875 -9.96875 C 59.609375 -6.46875 55.734375 -3.765625 50.796875 -1.859375 C 45.859375 0.0351562 40.28125 0.984375 34.0625 0.984375 Z M 34.0625 0.984375 "/></g></g></g></g></g></g></g></g></svg>